G70*
%FSLAX55Y55*%
%ADD11C,0.01000*%
%ADD12C,0.00800*%
%ADD13C,0.02000*%
%ADD14C,0.00100*%
%ADD15C,0.06594*%
%ADD16R,0.07394X0.07394*%
%ADD17C,0.07394*%
%ADD18R,0.05906X0.09055*%
%ADD19O,0.04331X0.04331*%
%ADD20C,0.04528*%
%ADD21O,0.10236X0.08268*%
%ADD22C,0.04331*%
%ADD23C,0.01500*%
%ADD24C,0.02480*%
%ADD25C,0.01575*%
D11*
X285837Y503106D02*
X545679Y503106D01*
X545679Y884995*
X285837Y884995*
X285837Y503106*
D12*
G36*
X685758Y86846D02*
X708712Y86856D01*
X709758Y88946*
X700758Y97946*
X699558Y100646*
X699558Y103946*
X699858Y105146*
X701058Y107246*
X702258Y108446*
X703758Y109346*
X705558Y109946*
X707658Y110246*
X750258Y110246*
X747858Y103946*
X747558Y103646*
X737658Y103646*
X728058Y80846*
X721158Y80846*
X730458Y102746*
X730458Y103646*
X706758Y103646*
X706158Y103346*
X705858Y102746*
X705858Y101846*
X706158Y101546*
X714858Y93146*
X715758Y91646*
X716058Y90146*
X716358Y89846*
X716358Y87146*
G75*
G02X711558Y80846I-08949J01839*
G01X683358Y80846*
X683358Y81446*
X685458Y86546*
X685758Y86846*
G37*
X708712Y86856*
X709758Y88946*
X700758Y97946*
X699558Y100646*
X699558Y103946*
X699858Y105146*
X701058Y107246*
X702258Y108446*
X703758Y109346*
X705558Y109946*
X707658Y110246*
X750258Y110246*
X747858Y103946*
X747558Y103646*
X737658Y103646*
X728058Y80846*
X721158Y80846*
X730458Y102746*
X730458Y103646*
X706758Y103646*
X706158Y103346*
X705858Y102746*
X705858Y101846*
X706158Y101546*
X714858Y93146*
X715758Y91646*
X716058Y90146*
X716358Y89846*
X716358Y87146*
G75*
G02X711558Y80846I-08949J01839*
G01X683358Y80846*
X683358Y81446*
X685458Y86546*
X685758Y86846*
X202005Y49738D02*
X632005Y49738D01*
D13*
X197005Y129738D02*
X637005Y129738D01*
X67005Y29738D02*
X187005Y29738D01*
D12*
X202005Y84738D02*
X632005Y84738D01*
D13*
X197005Y119738D02*
X637005Y119738D01*
D12*
X683958Y80246D02*
X683358Y80846D01*
X683358Y81446*
X695358Y110546*
G75*
G02X701958Y115646I08543J-04235*
G01X751758Y115646*
X752058Y115346*
X752058Y114146*
X740058Y85346*
G75*
G02X733458Y80246I-08825J04600*
G01X683958Y80246*
D13*
X637005Y129738D02*
X637005Y169738D01*
X57005Y179738D02*
X807005Y179738D01*
X67005Y124738D02*
X187005Y124738D01*
X67005Y169738D02*
X187005Y169738D01*
X197005Y169738D02*
X637005Y169738D01*
X197005Y29738D02*
X197005Y119738D01*
X197005Y129738D02*
X197005Y169738D01*
X67005Y29738D02*
X67005Y169738D01*
X637005Y29738D02*
X637005Y119738D01*
X647005Y169738D02*
X797005Y169738D01*
X647005Y29738D02*
X797005Y29738D01*
X19604Y19738D02*
X19604Y1149659D01*
X19604Y19738D02*
X807005Y19738D01*
X57005Y19738D02*
X57005Y179738D01*
X187005Y29738D02*
X187005Y169738D01*
X647005Y29738D02*
X647005Y169738D01*
X797005Y29738D02*
X797005Y169738D01*
X67005Y79738D02*
X187005Y79738D01*
X807005Y19738D02*
X807005Y1149659D01*
X197005Y29738D02*
X637005Y29738D01*
X19604Y1149659D02*
X807005Y1149659D01*
D14*
G36*
X315955Y783814D02*
X325797Y783814D01*
X325797Y779877*
X315955Y779877*
X315955Y783814*
G37*
X325797Y783814*
X325797Y779877*
X315955Y779877*
X315955Y783814*
G36*
X510045Y796574D02*
X500203Y796574D01*
X500203Y800511*
X510045Y800511*
X510045Y796574*
G37*
X500203Y796574*
X500203Y800511*
X510045Y800511*
X510045Y796574*
G36*
X510045Y786574D02*
X500203Y786574D01*
X500203Y790511*
X510045Y790511*
X510045Y786574*
G37*
X500203Y786574*
X500203Y790511*
X510045Y790511*
X510045Y786574*
D15*
X364990Y805038D03*
X364990Y825038D03*
D16*
X310758Y861846D03*
D17*
X310758Y871846D03*
D14*
G36*
X447840Y786574D02*
X437998Y786574D01*
X437998Y790511*
X447840Y790511*
X447840Y786574*
G37*
X437998Y786574*
X437998Y790511*
X447840Y790511*
X447840Y786574*
D16*
X310758Y766245D03*
D17*
X310758Y776245D03*
D14*
G36*
X447840Y796574D02*
X437998Y796574D01*
X437998Y800511*
X447840Y800511*
X447840Y796574*
G37*
X437998Y796574*
X437998Y800511*
X447840Y800511*
X447840Y796574*
G36*
X428947Y761373D02*
X438789Y761373D01*
X438789Y757436*
X428947Y757436*
X428947Y761373*
G37*
X438789Y761373*
X438789Y757436*
X428947Y757436*
X428947Y761373*
D16*
X520758Y861846D03*
D17*
X520758Y871846D03*
D14*
G36*
X447840Y806574D02*
X437998Y806574D01*
X437998Y810511*
X447840Y810511*
X447840Y806574*
G37*
X437998Y806574*
X437998Y810511*
X447840Y810511*
X447840Y806574*
D16*
X310758Y840507D03*
D17*
X310758Y830507D03*
X310758Y820507D03*
X310758Y810507D03*
X310758Y800507D03*
X310758Y790507D03*
D15*
X396037Y752889D03*
X416037Y752889D03*
D14*
G36*
X510045Y816574D02*
X500203Y816574D01*
X500203Y820511*
X510045Y820511*
X510045Y816574*
G37*
X500203Y816574*
X500203Y820511*
X510045Y820511*
X510045Y816574*
D18*
X414321Y511965D03*
X447195Y511965D03*
D19*
X421998Y510095D03*
X439518Y510095D03*
D20*
X421998Y523874D03*
X439518Y523874D03*
D16*
X510758Y751846D03*
D17*
X520758Y751846D03*
X510758Y741846D03*
X520758Y741846D03*
X510758Y731846D03*
X520758Y731846D03*
X510758Y721846D03*
X520758Y721846D03*
X510758Y711846D03*
X520758Y711846D03*
X510758Y701846D03*
X520758Y701846D03*
X510758Y691846D03*
X520758Y691846D03*
X510758Y681846D03*
X520758Y681846D03*
X510758Y671846D03*
X520758Y671846D03*
X510758Y661846D03*
X520758Y661846D03*
X510758Y651846D03*
X520758Y651846D03*
X510758Y641846D03*
X520758Y641846D03*
X510758Y631846D03*
X520758Y631846D03*
X510758Y621846D03*
X520758Y621846D03*
X510758Y611846D03*
X520758Y611846D03*
X510758Y601846D03*
X520758Y601846D03*
X510758Y591846D03*
X520758Y591846D03*
X510758Y581846D03*
X520758Y581846D03*
X510758Y571846D03*
X520758Y571846D03*
X510758Y561846D03*
X520758Y561846D03*
X510758Y551846D03*
X520758Y551846D03*
X510758Y541846D03*
X520758Y541846D03*
X510758Y531846D03*
X520758Y531846D03*
X510758Y521846D03*
X520758Y521846D03*
X510758Y511846D03*
X520758Y511846D03*
D16*
X353750Y722397D03*
D17*
X353750Y712397D03*
D14*
G36*
X447840Y816574D02*
X437998Y816574D01*
X437998Y820511*
X447840Y820511*
X447840Y816574*
G37*
X437998Y816574*
X437998Y820511*
X447840Y820511*
X447840Y816574*
D16*
X472053Y818542D03*
D17*
X472053Y808542D03*
X472053Y798542D03*
X472053Y788542D03*
D14*
G36*
X364577Y668263D02*
X364577Y658420D01*
X360640Y658420*
X360640Y668263*
X364577Y668263*
G37*
X364577Y658420*
X360640Y658420*
X360640Y668263*
X364577Y668263*
G36*
X428947Y754287D02*
X438789Y754287D01*
X438789Y750350*
X428947Y750350*
X428947Y754287*
G37*
X438789Y754287*
X438789Y750350*
X428947Y750350*
X428947Y754287*
G36*
X371467Y778499D02*
X371467Y788342D01*
X375404Y788342*
X375404Y778499*
X371467Y778499*
G37*
X371467Y788342*
X375404Y788342*
X375404Y778499*
X371467Y778499*
G36*
X434459Y781452D02*
X434459Y771609D01*
X430522Y771609*
X430522Y781452*
X434459Y781452*
G37*
X434459Y771609*
X430522Y771609*
X430522Y781452*
X434459Y781452*
G36*
X413789Y767672D02*
X423632Y767672D01*
X423632Y763735*
X413789Y763735*
X413789Y767672*
G37*
X423632Y767672*
X423632Y763735*
X413789Y763735*
X413789Y767672*
G36*
X452963Y712554D02*
X462805Y712554D01*
X462805Y708617*
X452963Y708617*
X452963Y712554*
G37*
X462805Y712554*
X462805Y708617*
X452963Y708617*
X452963Y712554*
G36*
X363789Y683617D02*
X363789Y693460D01*
X367726Y693460*
X367726Y683617*
X363789Y683617*
G37*
X363789Y693460*
X367726Y693460*
X367726Y683617*
X363789Y683617*
D21*
X359695Y509641D03*
X351821Y518696D03*
X351821Y540349D03*
D14*
G36*
X413789Y773578D02*
X423632Y773578D01*
X423632Y769641*
X413789Y769641*
X413789Y773578*
G37*
X423632Y773578*
X423632Y769641*
X413789Y769641*
X413789Y773578*
G36*
X404931Y783420D02*
X404931Y773578D01*
X400994Y773578*
X400994Y783420*
X404931Y783420*
G37*
X404931Y773578*
X400994Y773578*
X400994Y783420*
X404931Y783420*
G36*
X510045Y806574D02*
X500203Y806574D01*
X500203Y810511*
X510045Y810511*
X510045Y806574*
G37*
X500203Y806574*
X500203Y810511*
X510045Y810511*
X510045Y806574*
G36*
X315955Y789326D02*
X325797Y789326D01*
X325797Y785389*
X315955Y785389*
X315955Y789326*
G37*
X325797Y789326*
X325797Y785389*
X315955Y785389*
X315955Y789326*
D22*
X425810Y868267D03*
X408510Y868267D03*
D16*
X310758Y751846D03*
D17*
X320758Y751846D03*
X310758Y741846D03*
X320758Y741846D03*
X310758Y731846D03*
X320758Y731846D03*
X310758Y721846D03*
X320758Y721846D03*
X310758Y711846D03*
X320758Y711846D03*
X310758Y701846D03*
X320758Y701846D03*
X310758Y691846D03*
X320758Y691846D03*
X310758Y681846D03*
X320758Y681846D03*
X310758Y671846D03*
X320758Y671846D03*
X310758Y661846D03*
X320758Y661846D03*
X310758Y651846D03*
X320758Y651846D03*
X310758Y641846D03*
X320758Y641846D03*
X310758Y631846D03*
X320758Y631846D03*
X310758Y621846D03*
X320758Y621846D03*
X310758Y611846D03*
X320758Y611846D03*
X310758Y601846D03*
X320758Y601846D03*
X310758Y591846D03*
X320758Y591846D03*
X310758Y581846D03*
X320758Y581846D03*
X310758Y571846D03*
X320758Y571846D03*
X310758Y561846D03*
X320758Y561846D03*
X310758Y551846D03*
X320758Y551846D03*
X310758Y541846D03*
X320758Y541846D03*
X310758Y531846D03*
X320758Y531846D03*
X310758Y521846D03*
X320758Y521846D03*
X310758Y511846D03*
X320758Y511846D03*
D23*
X70558Y140355D02*
X70558Y150355*
X74725Y150355D01*
X76392Y149522*
X77225Y147855*
X77225Y144938*
X76392Y143272*
X74725Y142438*
X70558Y142438*
X72225Y142438D02*
X72225Y150355D01*
X80558Y142438D02*
X83891Y150355D01*
X87225Y142438*
X81808Y145355D02*
X85975Y145355D01*
X90558Y150355D02*
X97224Y150355D01*
X93891Y150355D02*
X93891Y142438D01*
X106391Y142438D02*
X100557Y142438D01*
X100557Y150355*
X106391Y150355*
X106391Y146605D02*
X100557Y146605D01*
X111807Y142438D02*
X111599Y142438D01*
X111599Y142855*
X111807Y142855*
X111807Y142438*
X111807Y146605D02*
X111599Y146605D01*
X111599Y147022*
X111807Y147022*
X111807Y146605*
D24*
X80758Y41846D02*
X80758Y48735*
X82136Y46767D01*
X89026Y46767*
X90404Y48735*
X90404Y54641*
X89026Y56609*
X82136Y56609*
X80758Y58578*
X80758Y63499*
X82136Y65468*
X89026Y65468*
X90404Y63499*
X99360Y46767D02*
X99016Y46767D01*
X99016Y47751*
X99360Y47751*
X99360Y46767*
X105561Y46767D02*
X105561Y65468D01*
X111762Y46767*
X117963Y65468*
X117963Y46767*
X124163Y46767D02*
X123819Y46767D01*
X123819Y47751*
X124163Y47751*
X124163Y46767*
X140010Y46767D02*
X130364Y46767D01*
X130364Y65468*
X140010Y65468*
X140010Y56609D02*
X130364Y56609D01*
X148967Y46767D02*
X148622Y46767D01*
X148622Y47751*
X148967Y47751*
X148967Y46767*
X164813Y46767D02*
X155167Y46767D01*
X155167Y65468*
X164813Y65468*
X164813Y56609D02*
X155167Y56609D01*
X173770Y46767D02*
X173425Y46767D01*
X173425Y47751*
X173770Y47751*
X173770Y46767*
D25*
X206611Y53203D02*
X206611Y56073*
X206611Y66982D01*
X211779Y56073*
X216946Y66982*
X216946Y56073*
X220391Y56073D02*
X220391Y66982D01*
X228429Y66982*
X229577Y65834*
X229577Y62963*
X228429Y61815*
X220391Y61815D02*
X228429Y61815D01*
X229577Y60666*
X229577Y57222*
X228429Y56073*
X220391Y56073*
X236179Y56073D02*
X236179Y66982D01*
X235031Y64685*
X243069Y56073D02*
X243069Y66982D01*
X241921Y64685*
X249959Y56073D02*
X249959Y66982D01*
X248810Y64685*
X254839Y57222D02*
X255987Y56073D01*
X261728Y56073*
X262877Y57222*
X262877Y61241*
X261728Y62389*
X255987Y62389*
X254839Y61241*
X254839Y66982*
X262877Y66982*
X268618Y56073D02*
X268618Y66982D01*
X276656Y66982*
X277804Y65834*
X277804Y62963*
X276656Y61815*
X268618Y61815D02*
X276656Y61815D01*
X277804Y60666*
X277804Y57222*
X276656Y56073*
X268618Y56073*
X207097Y141688D02*
X207097Y145707*
X208245Y144559D01*
X213986Y144559*
X215135Y145707*
X215135Y149152*
X213986Y150300*
X208245Y150300*
X207097Y151449*
X207097Y154319*
X208245Y155468*
X213986Y155468*
X215135Y154319*
X230062Y146281D02*
X228340Y144559D01*
X222598Y144559*
X220876Y146281*
X220876Y153745*
X222598Y155468*
X228340Y155468*
X230062Y153745*
X230062Y146281*
X242693Y144559D02*
X234655Y144559D01*
X234655Y155468*
X248434Y155468D02*
X254176Y155468D01*
X256472Y154319*
X257621Y152023*
X257621Y148004*
X256472Y145707*
X254176Y144559*
X248434Y144559*
X250731Y144559D02*
X250731Y155468D01*
X270251Y144559D02*
X262213Y144559D01*
X262213Y155468*
X270251Y155468*
X270251Y150300D02*
X262213Y150300D01*
X275993Y144559D02*
X275993Y155468D01*
X284031Y155468*
X285179Y154319*
X285179Y151449*
X284031Y150300*
X275993Y150300*
X282882Y150300D02*
X284031Y150300D01*
X285179Y144559*
X298958Y141688D02*
X303551Y144559*
X303551Y155468D01*
X308718Y144559*
X313886Y155468*
X313886Y144559*
X317330Y144559D02*
X321923Y155468D01*
X326517Y144559*
X319053Y148578D02*
X324794Y148578D01*
X331109Y145707D02*
X332258Y144559D01*
X337999Y144559*
X339147Y145707*
X339147Y149152*
X337999Y150300*
X332258Y150300*
X331109Y151449*
X331109Y154319*
X332258Y155468*
X337999Y155468*
X339147Y154319*
X344889Y144559D02*
X344889Y155468D01*
X344889Y150300D02*
X345463Y150300D01*
X352927Y155468*
X345463Y150300D02*
X352927Y144559D01*
X367854Y141688D02*
X372447Y144559*
X372447Y155468D01*
X380485Y155468*
X381633Y154319*
X381633Y151449*
X380485Y150300*
X372447Y150300D02*
X380485Y150300D01*
X381633Y149152*
X381633Y145707*
X380485Y144559*
X372447Y144559*
X395413Y146281D02*
X393690Y144559D01*
X387949Y144559*
X386226Y146281*
X386226Y153745*
X387949Y155468*
X393690Y155468*
X395413Y153745*
X395413Y146281*
X400006Y155468D02*
X409192Y155468D01*
X404599Y155468D02*
X404599Y144559D01*
X413785Y155468D02*
X422971Y155468D01*
X418378Y155468D02*
X418378Y144559D01*
X436750Y146281D02*
X435028Y144559D01*
X429286Y144559*
X427564Y146281*
X427564Y153745*
X429286Y155468*
X435028Y155468*
X436750Y153745*
X436750Y146281*
X441343Y144559D02*
X441343Y155468D01*
X446510Y144559*
X451678Y155468*
X451678Y144559*
X464309Y141688D02*
X476940Y144559*
X468902Y144559D01*
X468902Y155468*
X482681Y144559D02*
X487274Y155468D01*
X491867Y144559*
X484403Y148578D02*
X490145Y148578D01*
X496460Y155468D02*
X501053Y150300D01*
X505646Y155468*
X501053Y150300D02*
X501053Y144559D01*
X518277Y144559D02*
X510239Y144559D01*
X510239Y155468*
X518277Y155468*
X518277Y150300D02*
X510239Y150300D01*
X524018Y144559D02*
X524018Y155468D01*
X532056Y155468*
X533205Y154319*
X533205Y151449*
X532056Y150300*
X524018Y150300*
X530908Y150300D02*
X532056Y150300D01*
X533205Y144559*
X206611Y88636D02*
X206611Y92655*
X207760Y91506D01*
X213501Y91506*
X214649Y92655*
X214649Y96099*
X213501Y97248*
X207760Y97248*
X206611Y98396*
X206611Y101267*
X207760Y102415*
X213501Y102415*
X214649Y101267*
X220391Y102415D02*
X229577Y102415D01*
X224984Y102415D02*
X224984Y91506D01*
X234170Y91506D02*
X234170Y102415D01*
X239337Y91506*
X244504Y102415*
X244504Y91506*
X247949Y101267D02*
X249097Y102415D01*
X254839Y102415*
X255987Y101267*
X255987Y98396*
X254839Y97248*
X251394Y97248*
X254839Y97248*
X255987Y96099*
X255987Y93229*
X254839Y91506*
X249097Y91506*
X247949Y92655*
X261728Y101267D02*
X262876Y102415D01*
X268618Y102415*
X269766Y101267*
X269766Y98970*
X268618Y97822*
X261728Y91506*
X269766Y91506*
X275507Y91506D02*
X275507Y102415D01*
X283545Y102415*
X283545Y97248D02*
X275507Y97248D01*
X295028Y91506D02*
X295028Y102415D01*
X289287Y95525*
X297325Y95525*
X311104Y92655D02*
X309956Y91506D01*
X304214Y91506*
X303066Y92655*
X303066Y101267*
X304214Y102415*
X309956Y102415*
X311104Y101267*
X311104Y92655*
X303066Y92655D02*
X311104Y101267D01*
X318855Y91506D02*
X318855Y102415D01*
X317706Y100119*
X332921Y92655D02*
X331773Y91506D01*
X324883Y91506*
X323735Y92655*
X323735Y101267*
X324883Y102415*
X331773Y102415*
X332921Y101267*
X338662Y97248D02*
X345552Y97248D01*
X351293Y102415D02*
X357035Y102415D01*
X359331Y101267*
X360479Y98970*
X360479Y94951*
X359331Y92655*
X357035Y91506*
X351293Y91506*
X353590Y91506D02*
X353590Y102415D01*
X367369Y91506D02*
X367369Y102415D01*
X366221Y91506D02*
X368517Y91506D01*
X366221Y102415D02*
X368517Y102415D01*
X371962Y92655D02*
X373110Y91506D01*
X378852Y91506*
X380000Y92655*
X380000Y96099*
X378852Y97248*
X373110Y97248*
X371962Y98396*
X371962Y101267*
X373110Y102415*
X378852Y102415*
X380000Y101267*
X394927Y92655D02*
X393779Y91506D01*
X386889Y91506*
X385741Y92655*
X385741Y101267*
X386889Y102415*
X393779Y102415*
X394927Y101267*
X408707Y93229D02*
X406984Y91506D01*
X401243Y91506*
X399520Y93229*
X399520Y100693*
X401243Y102415*
X406984Y102415*
X408707Y100693*
X408707Y93229*
X413300Y102415D02*
X417893Y91506D01*
X422486Y102415*
X435117Y91506D02*
X427079Y91506D01*
X427079Y102415*
X435117Y102415*
X435117Y97248D02*
X427079Y97248D01*
X440858Y91506D02*
X440858Y102415D01*
X448896Y102415*
X450044Y101267*
X450044Y98396*
X448896Y97248*
X440858Y97248*
X447748Y97248D02*
X448896Y97248D01*
X450044Y91506*
X454637Y102415D02*
X459230Y97248D01*
X463824Y102415*
X459230Y97248D02*
X459230Y91506D01*
D23*
X74258Y126846D02*
X75716Y128929*
X75716Y136846D01*
X74883Y135179*
X85091Y129762D02*
X84258Y128929D01*
X80091Y128929*
X79258Y129762*
X79258Y136012*
X80091Y136846*
X84258Y136846*
X85091Y136012*
X85091Y129762*
X79258Y129762D02*
X85091Y136012D01*
X89257Y128929D02*
X95924Y136846D01*
X105090Y129762D02*
X104257Y128929D01*
X100090Y128929*
X99257Y129762*
X99257Y136012*
X100090Y136846*
X104257Y136846*
X105090Y136012*
X105090Y129762*
X99257Y129762D02*
X105090Y136012D01*
X109257Y136846D02*
X115090Y136846D01*
X110090Y128929*
X119257Y128929D02*
X125923Y136846D01*
X129256Y136012D02*
X130090Y136846D01*
X134256Y136846*
X135090Y136012*
X135090Y134346*
X134256Y133512*
X129256Y128929*
X135090Y128929*
X145089Y129762D02*
X144256Y128929D01*
X140089Y128929*
X139256Y129762*
X139256Y136012*
X140089Y136846*
X144256Y136846*
X145089Y136012*
X145089Y129762*
X139256Y129762D02*
X145089Y136012D01*
X150714Y128929D02*
X150714Y136846D01*
X149881Y135179*
X154255Y136012D02*
X155089Y136846D01*
X159255Y136846*
X160089Y136012*
X160089Y133929*
X159255Y133096*
X156755Y133096*
X159255Y133096*
X160089Y132262*
X160089Y130179*
X159255Y128929*
X155089Y128929*
X154255Y129762*
M02*
