G70*
%FSLAX55Y55*%
%ADD11C,0.01000*%
%ADD12C,0.00800*%
%ADD13C,0.02000*%
%ADD14C,0.01500*%
%ADD15C,0.02480*%
%ADD16C,0.01575*%
D11*
X285837Y503106D02*
X545679Y503106D01*
X545679Y884995*
X285837Y884995*
X285837Y503106*
D12*
G36*
X685758Y86846D02*
X708712Y86856D01*
X709758Y88946*
X700758Y97946*
X699558Y100646*
X699558Y103946*
X699858Y105146*
X701058Y107246*
X702258Y108446*
X703758Y109346*
X705558Y109946*
X707658Y110246*
X750258Y110246*
X747858Y103946*
X747558Y103646*
X737658Y103646*
X728058Y80846*
X721158Y80846*
X730458Y102746*
X730458Y103646*
X706758Y103646*
X706158Y103346*
X705858Y102746*
X705858Y101846*
X706158Y101546*
X714858Y93146*
X715758Y91646*
X716058Y90146*
X716358Y89846*
X716358Y87146*
G75*
G02X711558Y80846I-08949J01839*
G01X683358Y80846*
X683358Y81446*
X685458Y86546*
X685758Y86846*
G37*
X708712Y86856*
X709758Y88946*
X700758Y97946*
X699558Y100646*
X699558Y103946*
X699858Y105146*
X701058Y107246*
X702258Y108446*
X703758Y109346*
X705558Y109946*
X707658Y110246*
X750258Y110246*
X747858Y103946*
X747558Y103646*
X737658Y103646*
X728058Y80846*
X721158Y80846*
X730458Y102746*
X730458Y103646*
X706758Y103646*
X706158Y103346*
X705858Y102746*
X705858Y101846*
X706158Y101546*
X714858Y93146*
X715758Y91646*
X716058Y90146*
X716358Y89846*
X716358Y87146*
G75*
G02X711558Y80846I-08949J01839*
G01X683358Y80846*
X683358Y81446*
X685458Y86546*
X685758Y86846*
X202005Y49738D02*
X632005Y49738D01*
D13*
X197005Y129738D02*
X637005Y129738D01*
X67005Y29738D02*
X187005Y29738D01*
D12*
X202005Y84738D02*
X632005Y84738D01*
D13*
X197005Y119738D02*
X637005Y119738D01*
D12*
X683958Y80246D02*
X683358Y80846D01*
X683358Y81446*
X695358Y110546*
G75*
G02X701958Y115646I08543J-04235*
G01X751758Y115646*
X752058Y115346*
X752058Y114146*
X740058Y85346*
G75*
G02X733458Y80246I-08825J04600*
G01X683958Y80246*
D13*
X637005Y129738D02*
X637005Y169738D01*
X57005Y179738D02*
X807005Y179738D01*
X67005Y124738D02*
X187005Y124738D01*
X67005Y169738D02*
X187005Y169738D01*
X197005Y169738D02*
X637005Y169738D01*
X197005Y29738D02*
X197005Y119738D01*
X197005Y129738D02*
X197005Y169738D01*
X67005Y29738D02*
X67005Y169738D01*
X637005Y29738D02*
X637005Y119738D01*
X647005Y169738D02*
X797005Y169738D01*
X647005Y29738D02*
X797005Y29738D01*
X19604Y19738D02*
X19604Y1149659D01*
X19604Y19738D02*
X807005Y19738D01*
X57005Y19738D02*
X57005Y179738D01*
X187005Y29738D02*
X187005Y169738D01*
X647005Y29738D02*
X647005Y169738D01*
X797005Y29738D02*
X797005Y169738D01*
X67005Y79738D02*
X187005Y79738D01*
X807005Y19738D02*
X807005Y1149659D01*
X197005Y29738D02*
X637005Y29738D01*
X19604Y1149659D02*
X807005Y1149659D01*
D14*
X70558Y140355D02*
X70558Y150355*
X74725Y150355D01*
X76392Y149522*
X77225Y147855*
X77225Y144938*
X76392Y143272*
X74725Y142438*
X70558Y142438*
X72225Y142438D02*
X72225Y150355D01*
X80558Y142438D02*
X83891Y150355D01*
X87225Y142438*
X81808Y145355D02*
X85975Y145355D01*
X90558Y150355D02*
X97224Y150355D01*
X93891Y150355D02*
X93891Y142438D01*
X106391Y142438D02*
X100557Y142438D01*
X100557Y150355*
X106391Y150355*
X106391Y146605D02*
X100557Y146605D01*
X111807Y142438D02*
X111599Y142438D01*
X111599Y142855*
X111807Y142855*
X111807Y142438*
X111807Y146605D02*
X111599Y146605D01*
X111599Y147022*
X111807Y147022*
X111807Y146605*
D15*
X80758Y41846D02*
X80758Y48735*
X82136Y46767D01*
X89026Y46767*
X90404Y48735*
X90404Y54641*
X89026Y56609*
X82136Y56609*
X80758Y58578*
X80758Y63499*
X82136Y65468*
X89026Y65468*
X90404Y63499*
X99360Y46767D02*
X99016Y46767D01*
X99016Y47751*
X99360Y47751*
X99360Y46767*
X105561Y46767D02*
X105561Y65468D01*
X111762Y46767*
X117963Y65468*
X117963Y46767*
X124163Y46767D02*
X123819Y46767D01*
X123819Y47751*
X124163Y47751*
X124163Y46767*
X140010Y46767D02*
X130364Y46767D01*
X130364Y65468*
X140010Y65468*
X140010Y56609D02*
X130364Y56609D01*
X148967Y46767D02*
X148622Y46767D01*
X148622Y47751*
X148967Y47751*
X148967Y46767*
X164813Y46767D02*
X155167Y46767D01*
X155167Y65468*
X164813Y65468*
X164813Y56609D02*
X155167Y56609D01*
X173770Y46767D02*
X173425Y46767D01*
X173425Y47751*
X173770Y47751*
X173770Y46767*
D16*
X206611Y53203D02*
X206611Y56073*
X206611Y66982D01*
X211779Y56073*
X216946Y66982*
X216946Y56073*
X220391Y56073D02*
X220391Y66982D01*
X228429Y66982*
X229577Y65834*
X229577Y62963*
X228429Y61815*
X220391Y61815D02*
X228429Y61815D01*
X229577Y60666*
X229577Y57222*
X228429Y56073*
X220391Y56073*
X236179Y56073D02*
X236179Y66982D01*
X235031Y64685*
X243069Y56073D02*
X243069Y66982D01*
X241921Y64685*
X249959Y56073D02*
X249959Y66982D01*
X248810Y64685*
X254839Y57222D02*
X255987Y56073D01*
X261728Y56073*
X262877Y57222*
X262877Y61241*
X261728Y62389*
X255987Y62389*
X254839Y61241*
X254839Y66982*
X262877Y66982*
X268618Y56073D02*
X268618Y66982D01*
X276656Y66982*
X277804Y65834*
X277804Y62963*
X276656Y61815*
X268618Y61815D02*
X276656Y61815D01*
X277804Y60666*
X277804Y57222*
X276656Y56073*
X268618Y56073*
X207097Y141688D02*
X207097Y144559*
X207097Y155468D01*
X215135Y155468*
X216283Y154319*
X216283Y151449*
X215135Y150300*
X207097Y150300*
X220876Y144559D02*
X225469Y155468D01*
X230062Y144559*
X222598Y148578D02*
X228340Y148578D01*
X234655Y145707D02*
X235803Y144559D01*
X241545Y144559*
X242693Y145707*
X242693Y149152*
X241545Y150300*
X235803Y150300*
X234655Y151449*
X234655Y154319*
X235803Y155468*
X241545Y155468*
X242693Y154319*
X248434Y155468D02*
X257621Y155468D01*
X253027Y155468D02*
X253027Y144559D01*
X270251Y144559D02*
X262213Y144559D01*
X262213Y155468*
X270251Y155468*
X270251Y150300D02*
X262213Y150300D01*
X285179Y141688D02*
X289772Y144559*
X289772Y155468D01*
X294939Y144559*
X300106Y155468*
X300106Y144559*
X303551Y144559D02*
X308144Y155468D01*
X312737Y144559*
X305273Y148578D02*
X311015Y148578D01*
X317330Y145707D02*
X318479Y144559D01*
X324220Y144559*
X325368Y145707*
X325368Y149152*
X324220Y150300*
X318479Y150300*
X317330Y151449*
X317330Y154319*
X318479Y155468*
X324220Y155468*
X325368Y154319*
X331109Y144559D02*
X331109Y155468D01*
X331109Y150300D02*
X331684Y150300D01*
X339147Y155468*
X331684Y150300D02*
X339147Y144559D01*
X354075Y141688D02*
X358668Y144559*
X358668Y155468D01*
X366706Y155468*
X367854Y154319*
X367854Y151449*
X366706Y150300*
X358668Y150300D02*
X366706Y150300D01*
X367854Y149152*
X367854Y145707*
X366706Y144559*
X358668Y144559*
X381633Y146281D02*
X379911Y144559D01*
X374170Y144559*
X372447Y146281*
X372447Y153745*
X374170Y155468*
X379911Y155468*
X381633Y153745*
X381633Y146281*
X386226Y155468D02*
X395413Y155468D01*
X390819Y155468D02*
X390819Y144559D01*
X400006Y155468D02*
X409192Y155468D01*
X404599Y155468D02*
X404599Y144559D01*
X422971Y146281D02*
X421249Y144559D01*
X415507Y144559*
X413785Y146281*
X413785Y153745*
X415507Y155468*
X421249Y155468*
X422971Y153745*
X422971Y146281*
X427564Y144559D02*
X427564Y155468D01*
X432731Y144559*
X437899Y155468*
X437899Y144559*
X450529Y141688D02*
X463160Y144559*
X455122Y144559D01*
X455122Y155468*
X468902Y144559D02*
X473495Y155468D01*
X478088Y144559*
X470624Y148578D02*
X476365Y148578D01*
X482681Y155468D02*
X487274Y150300D01*
X491867Y155468*
X487274Y150300D02*
X487274Y144559D01*
X504498Y144559D02*
X496460Y144559D01*
X496460Y155468*
X504498Y155468*
X504498Y150300D02*
X496460Y150300D01*
X510239Y144559D02*
X510239Y155468D01*
X518277Y155468*
X519426Y154319*
X519426Y151449*
X518277Y150300*
X510239Y150300*
X517129Y150300D02*
X518277Y150300D01*
X519426Y144559*
X206611Y88636D02*
X206611Y92655*
X207760Y91506D01*
X213501Y91506*
X214649Y92655*
X214649Y96099*
X213501Y97248*
X207760Y97248*
X206611Y98396*
X206611Y101267*
X207760Y102415*
X213501Y102415*
X214649Y101267*
X220391Y102415D02*
X229577Y102415D01*
X224984Y102415D02*
X224984Y91506D01*
X234170Y91506D02*
X234170Y102415D01*
X239337Y91506*
X244504Y102415*
X244504Y91506*
X247949Y101267D02*
X249097Y102415D01*
X254839Y102415*
X255987Y101267*
X255987Y98396*
X254839Y97248*
X251394Y97248*
X254839Y97248*
X255987Y96099*
X255987Y93229*
X254839Y91506*
X249097Y91506*
X247949Y92655*
X261728Y101267D02*
X262876Y102415D01*
X268618Y102415*
X269766Y101267*
X269766Y98970*
X268618Y97822*
X261728Y91506*
X269766Y91506*
X275507Y91506D02*
X275507Y102415D01*
X283545Y102415*
X283545Y97248D02*
X275507Y97248D01*
X295028Y91506D02*
X295028Y102415D01*
X289287Y95525*
X297325Y95525*
X311104Y92655D02*
X309956Y91506D01*
X304214Y91506*
X303066Y92655*
X303066Y101267*
X304214Y102415*
X309956Y102415*
X311104Y101267*
X311104Y92655*
X303066Y92655D02*
X311104Y101267D01*
X318855Y91506D02*
X318855Y102415D01*
X317706Y100119*
X332921Y92655D02*
X331773Y91506D01*
X324883Y91506*
X323735Y92655*
X323735Y101267*
X324883Y102415*
X331773Y102415*
X332921Y101267*
X338662Y97248D02*
X345552Y97248D01*
X351293Y102415D02*
X357035Y102415D01*
X359331Y101267*
X360479Y98970*
X360479Y94951*
X359331Y92655*
X357035Y91506*
X351293Y91506*
X353590Y91506D02*
X353590Y102415D01*
X367369Y91506D02*
X367369Y102415D01*
X366221Y91506D02*
X368517Y91506D01*
X366221Y102415D02*
X368517Y102415D01*
X371962Y92655D02*
X373110Y91506D01*
X378852Y91506*
X380000Y92655*
X380000Y96099*
X378852Y97248*
X373110Y97248*
X371962Y98396*
X371962Y101267*
X373110Y102415*
X378852Y102415*
X380000Y101267*
X394927Y92655D02*
X393779Y91506D01*
X386889Y91506*
X385741Y92655*
X385741Y101267*
X386889Y102415*
X393779Y102415*
X394927Y101267*
X408707Y93229D02*
X406984Y91506D01*
X401243Y91506*
X399520Y93229*
X399520Y100693*
X401243Y102415*
X406984Y102415*
X408707Y100693*
X408707Y93229*
X413300Y102415D02*
X417893Y91506D01*
X422486Y102415*
X435117Y91506D02*
X427079Y91506D01*
X427079Y102415*
X435117Y102415*
X435117Y97248D02*
X427079Y97248D01*
X440858Y91506D02*
X440858Y102415D01*
X448896Y102415*
X450044Y101267*
X450044Y98396*
X448896Y97248*
X440858Y97248*
X447748Y97248D02*
X448896Y97248D01*
X450044Y91506*
X454637Y102415D02*
X459230Y97248D01*
X463824Y102415*
X459230Y97248D02*
X459230Y91506D01*
D14*
X74258Y126846D02*
X75716Y128929*
X75716Y136846D01*
X74883Y135179*
X85091Y129762D02*
X84258Y128929D01*
X80091Y128929*
X79258Y129762*
X79258Y136012*
X80091Y136846*
X84258Y136846*
X85091Y136012*
X85091Y129762*
X79258Y129762D02*
X85091Y136012D01*
X89257Y128929D02*
X95924Y136846D01*
X105090Y129762D02*
X104257Y128929D01*
X100090Y128929*
X99257Y129762*
X99257Y136012*
X100090Y136846*
X104257Y136846*
X105090Y136012*
X105090Y129762*
X99257Y129762D02*
X105090Y136012D01*
X109257Y136846D02*
X115090Y136846D01*
X110090Y128929*
X119257Y128929D02*
X125923Y136846D01*
X129256Y136012D02*
X130090Y136846D01*
X134256Y136846*
X135090Y136012*
X135090Y134346*
X134256Y133512*
X129256Y128929*
X135090Y128929*
X145089Y129762D02*
X144256Y128929D01*
X140089Y128929*
X139256Y129762*
X139256Y136012*
X140089Y136846*
X144256Y136846*
X145089Y136012*
X145089Y129762*
X139256Y129762D02*
X145089Y136012D01*
X150714Y128929D02*
X150714Y136846D01*
X149881Y135179*
X154255Y136012D02*
X155089Y136846D01*
X159255Y136846*
X160089Y136012*
X160089Y133929*
X159255Y133096*
X156755Y133096*
X159255Y133096*
X160089Y132262*
X160089Y130179*
X159255Y128929*
X155089Y128929*
X154255Y129762*
M02*
