M48
FMAT,2
T1C0.0118
T2C0.0256
T3C0.0276
T4C0.0315
T5C0.0394
T6C0.0472
%
T1
X000029176Y0000527
Y0000507
X000033938Y000051964
X000034292Y000051078
X000036359Y000051885
X000036932Y000050583
X000037304Y000051905
X000037405Y000050583
X000037798
X000038326Y00005195
X000039312Y00005305
X000039745Y0000522
X000040631Y000050744
X000040867Y000051905
X000042599Y000052948
X000043308Y000052751
X000044095Y000050507
X000044351Y000052811
X000045572Y000051334
X000045626Y0000527
X000047245Y00005287
X000047714Y00005255
X000047793Y000050897
X000048505Y00005287
Y000051531
X000048576Y0000509
Y0000521
X00004882Y000051531
X000049489Y000051866
X000050176Y0000515
X000054076Y000052712
Y0000507
Y000052003
X000029176Y0000567
Y0000547
X00003382Y000057417
X000033977Y000053952
Y000054937
X000034226Y00005785
X000034876Y0000563
X000035336Y000055468
X000035926Y0000568
X000035976Y0000564
X000036418Y000054307
X000036676Y00005775
X000036694Y000055527
X000036876Y00005605
X000038526Y00005365
X000039036Y000057692
X000039326Y00005365
X000039962Y000057771
X000040119Y000053224
X000040176Y00005605
X000040276Y00005395
X000041176Y0000551
X000041182Y000054248
X000041876Y0000551
X000042639Y000055685
X000042658Y000053736
X000042776Y0000551
X00004376Y000053172
X000044126Y0000568
X000044391Y000053736
X000044576Y00005585
X000044826Y0000573
X000045226Y00005315
X000045473Y000055972
X000045476Y00005465
Y000056925
X000045776Y000056775
X000046076Y00005652
X000046126Y00005405
X000046451Y000058075
X000046927Y00005798
Y000057587
X000047051Y00005565
X000047085Y000056249
X000047776Y000055934
Y0000579
Y0000569
X000048344Y000054596
X000048977Y000053972
Y000054287
X000054076Y0000567
Y000054818
X000029176Y0000607
Y0000587
X000034326Y00005955
Y0000599
Y0000603
X000035257Y000058303
X000035493Y000058578
X000036076Y000059945
X000036126Y00006065
X000036876Y00005955
X000036926Y00006045
X000037076Y00005995
X000037405Y00006045
X000037426Y0000597
X000037726Y00006055
X000038126Y0000607
X000038376Y0000594
X000038426Y0000607
X000038726Y00006045
X000038876Y00005875
X000039155Y000058696
X000039476Y00005825
X00003953Y000058925
X000039962Y000058775
X000040526Y0000603
X000040636Y000059715
X000041726Y0000605
X000042076Y00006015
X000042276Y000059
Y0000583
X000042326Y00005865
X000042376Y0000599
X000043622Y0000588
X000043976Y00006015
X000044826Y0000583
X000045526Y00005945
X000045631Y000059818
X000046436Y00006018
Y00006048
X000047096Y00006042
Y00006018
X000047123Y000059095
X000047176Y0000583
X000047276Y00005865
X000047576Y0000598
X000047776Y0000593
X000054076Y0000607
Y0000587
X000029176Y0000627
Y0000647
X000034426Y00006195
X000034676Y0000643
X00003567Y000065448
X000036221Y000065575
X000037026Y0000609
X000037176Y0000612
X000037626Y0000609
X000038026Y0000647
Y00006415
X000038146Y00006527
X000038226Y00006495
X000038276Y00006445
X000038336Y00006558
X000038826Y0000612
X000039676Y00006375
X000039686Y000061216
X000040176Y00006515
X000040355Y000061354
X000040426Y00006325
X000040676Y000063
X000040726Y00006105
X000040826Y00006245
Y0000621
X000040976Y0000643
X000041733Y000062122
Y000062555
X000041773Y000062909
X000041996Y00006558
X000042296Y00006576
X000042526Y0000616
X000042626Y0000657
X000042726Y00006185
X000042826Y00006545
X000042926Y00006515
X000042976Y0000631
X000043308Y000064248
X000043476Y0000614
X000043544Y000063066
X000043937Y000063096
X000044226Y00006255
X000045099Y000064248
X000045117Y00006585
X000045176Y0000619
Y0000628
X000045178Y00006159
X000045353Y000065772
X000045526Y0000609
X00004569Y00006159
X000045876Y0000628
X000046143Y000065704
X000046426Y00006435
X000046534Y00006404
X000046876Y00006405
X000050233Y000065536
X000054076Y000064661
Y000062692
X000029176Y0000667
X000034076Y00006822
X000037442Y00006594
X000037526Y00006655
X000038376Y0000659
X000039056Y000067988
X000039576Y00006765
X000039776Y00006725
X000040376Y00006829
X000040976Y00006685
Y000067188
X000042066Y00006737
X000042284Y000067818
X000042599Y000067267
X000042992Y000067346
X000043307Y000067739
X000043386Y000067267
X000043701Y000066952
X000044076Y000066675
X000044409Y000066795
X000045039Y000066637
X000045432Y000066716
X000045747Y000066873
X000046062Y000067031
X000046455
X000046849
X000046927Y000068054
X000047085Y000068369
Y000067267
X000047321Y000067503
Y000067818
X000048659Y000066952
X000050469Y000066008
X000054076Y000066629
X000029176Y0000707
Y0000686
X000032816Y000070468
X000033176Y00007086
X000034686Y000068795
X000035178Y0000693
X000035788Y000069405
X000036226Y0000694
X000039076Y0000706
X000039136Y000068447
X000039176Y0000696
Y000069077
X000039676Y00007056
X000040026Y00007062
X000040476Y0000708
Y0000699
X000041476Y0000708
X000041969Y00006892
Y000069549
X000042356Y00006984
X000042835
Y000069549
X000042836Y00006894
X000043701Y00006892
X000043779Y000069864
X000043796Y000069549
Y00006918
X000045526Y00007035
X000045876Y0000695
X000045976Y0000692
X000046026Y0000706
X000046076Y0000689
X000046326Y0000695
X000047226Y0000697
X0000474Y000068447
X000047476Y0000705
X000047478Y00007085
X000048032Y000070173
X000048108Y000069628
X00004858Y000070179
X000050395Y00007098
X000054076Y000068696
Y000070665
X000029176Y0000727
X000033466Y000071689
X000034076Y0000723
X000036655Y00007159
X000037026Y0000726
X000038918Y000073519
X000038979Y00007191
Y000071595
X000039126Y000071202
X000039509Y000073519
X000039687Y000071595
Y00007191
X000039776Y0000711
X000040237Y000072003
X000040238Y000071517
X000040552Y000071925
X000040726Y00007125
X000040867Y000071846
X000040976Y00007105
X000041182Y000071925
X000041676Y000072
X000041756Y00007152
X000042048Y000072003
X000042056Y00007152
X00004252Y000071438
X000042599Y000071989
X000042914
X000043071Y000071438
X00004315Y000071753
X000043465Y000071832
X000043779Y000071753
X000044036Y000072
X000045076Y0000716
X000046376Y0000718
X000046776
X000047276Y000071438
X000047321Y000071753
X000047478Y000071202
X000047626Y0000735
X000048426
X000048501Y0000732
X000050336Y0000726
X000054076Y000072732
X000029176Y0000747
X000033376Y0000753
X000034686Y000075094
X000035572Y000075488
X000036376Y0000754
X000036382Y000075137
X000038387Y000075822
X000038626Y000074208
Y0000739
X000039292Y000074838
X000039976Y00007405
X000040158Y000075074
Y000076019
X000040426Y0000758
X000040676Y00007505
X000041476Y00007605
X000041951Y0000744
X000042076Y00007485
X000042376Y0000759
X000042441Y000073563
X000042626Y00007525
X000043426Y00007445
X000044376Y0000759
X000044486Y0000741
X000044526Y00007495
X00004614Y0000741
X000046298Y000075924
Y000075137
X000046376Y00007368
X000046706
X000047006Y000074035
X000047976Y00007365
X000048501Y000075767
X00004858Y000074507
X000048738Y000076003
X000048776Y00007428
X000048836Y00007536
X000049856Y00007422
Y00007458
X000054076Y000074602
X000029176Y0000775
Y0000763
X000030376Y0000775
X000032826Y00007825
X000033726Y00007735
X000034253Y000076649
X000034332Y000078145
X000035513Y000077555
X000036418Y000077594
X000036976Y00007865
Y0000779
X000037068Y000076255
X000037826Y00007785
X000038176Y00007655
X000038526Y00007785
X000038576Y0000768
X000039626Y0000777
X000039826Y000078
X000040726Y0000784
X000040926Y00007705
X000042226Y000078
X000042284Y0000786
X000042526Y0000781
X000042811Y00007761
X000042876Y00007795
X000043465Y000078442
X000043776Y0000771
X000043856Y00007836
X000044126Y0000763
X000044756Y00007824
X000045536Y00007836
X000045904Y000077104
X000046613
X0000474
X000047976Y0000763
X000048576Y0000771
X000048836Y0000768
X000049276Y0000775
X000049496Y00007692
X000051517Y000077555
X000053302Y000076475
X000053696
X000054076Y000077456
X000029176Y0000795
X000031976Y0000805
Y0000795
X000032376Y0000806
X000032976Y00008
X000033126Y0000793
X000034883Y000079917
X00003567Y000079622
X000036126Y0000796
X000037206Y000079543
X000037832Y000080192
X000038626Y00007935
X000039331Y000079116
X000039876Y0000804
X000039896Y00008004
X000039922Y000081059
X000040395Y000079544
X000040788Y000079563
X000040976Y000081
X000041182Y000080252
X000041396Y00008064
X000041576Y00008095
X000041674Y000080148
X000042048Y00007978
X000042576Y00007935
X000043126Y00008075
X000043226Y00008005
X000043229Y00007955
X000043551Y000080755
X000043938Y000080192
X000044296Y0000804
X000045119Y000079326
X000046276Y0000794
X000054076Y0000803
X000029176Y0000835
Y0000816
X000032376Y0000821
X000032926Y00008305
X000033376Y0000821
X000034725Y000083421
X000034883Y000081492
X000035516Y00008159
X000036064Y000083362
X00003695
X000038726Y0000825
X000039126Y00008345
X000040176Y0000818
X000040676
Y00008325
X000040946Y000081433
X000041176Y0000833
X000041182Y000081826
X000041976Y0000818
X000042076Y0000813
X000042276Y000082771
X000042976Y0000824
X000043176Y0000815
X000043386Y000083479
X000044015Y000082377
X00004433Y0000834
X000044409Y000082377
X000044726Y00008135
X000045926Y000083027
X000046376Y0000821
X000047714Y000083322
X000048974
X000054076Y000082673
X000029176Y0000853
Y0000873
X000030976Y0000851
X000032976Y0000861
Y0000871
X000033026Y000084208
X000035769Y000086118
X000035976Y0000877
X000036162Y000084543
Y000085429
X000036976Y0000861
X000037147Y000085429
Y000084543
X000037826Y00008685
X000038776Y0000851
Y0000865
X000040631Y000084917
X000041576Y000086548
Y000087335
X000042835Y000083951
X000043386
X000044253Y000083972
X000044881Y000087335
X000045513Y000083972
X000046376Y0000863
X000046655Y000084011
X000047206Y000084405
X000047476Y0000863
X000047718Y000084523
X000048776Y00008545
X000049526Y0000855
X000050476Y0000863
X000051176
X000054076Y00008661
Y000084641
X000038776Y0000877
T2
X0000422Y000052387
X000043952
T3
X000039604Y000075289
X000041604
X000036499Y000080504
Y000082504
T4
X000041432Y000051354G85X000041432Y000051039
X000044719Y000051354G85X000044719Y000051039
T5
X000031076Y000052185
Y000051185
X000032076Y000052185
Y000051185
X000051076Y000052185
Y000051185
X000052076Y000052185
Y000051185
X000031076Y000053185
Y000057185
Y000056185
Y000055185
Y000054185
X000032076
Y000053185
Y000057185
Y000056185
Y000055185
X000051076
Y000054185
Y000053185
Y000057185
Y000056185
X000052076
Y000055185
Y000054185
Y000053185
Y000057185
X000031076Y000060185
Y000059185
Y000058185
Y000063185
Y000062185
Y000061185
X000032076Y000059185
Y000058185
Y000060185
Y000062185
Y000061185
Y000063185
X000051076Y000058185
Y000060185
Y000059185
Y000061185
Y000063185
Y000062185
X000052076Y000060185
Y000059185
Y000058185
Y000063185
Y000062185
Y000061185
X000031076Y000064185
Y000068185
Y000067185
Y000066185
Y000065185
X000032076
Y000064185
Y000068185
Y000067185
Y000066185
X000051076
Y000065185
Y000064185
Y000068185
Y000067185
X000052076
Y000066185
Y000065185
Y000064185
Y000068185
X000031076Y000069185
Y000071185
Y000073185
Y000072185
Y000070185
X000032076Y000069185
Y000072185
Y000070185
Y000071185
Y000073185
X000035375Y00007224
Y00007124
X000051076Y000073185
Y000069185
Y000071185
Y000072185
Y000070185
X000052076Y000073185
Y000072185
Y000069185
Y000070185
Y000071185
X000031076Y000074185
Y000075185
Y000077625
Y000076625
X000031076Y000081051
Y000080051
Y000079051
X000032076Y000075185
Y000074185
X000047205Y000080854
Y000078854
Y000079854
X000051076Y000075185
Y000074185
X000052076Y000075185
Y000074185
X000031076Y000086185
Y000087185
X000031076Y000082051
Y000084051
Y000083051
X000047205Y000081854
X000052076Y000086185
Y000087185
T6
X000035084Y00005187G85X000035281Y00005187
X000035871Y000050964G85X000036068Y000050964
X000035084Y000054035G85X000035281Y000054035
M30
