G70*
%FSLAX55Y55*%
%ADD11C,0.01000*%
%ADD12C,0.00800*%
%ADD13C,0.02000*%
%ADD14R,0.07394X0.07394*%
%ADD15C,0.07394*%
%ADD16R,0.04086X0.03386*%
%ADD17R,0.03386X0.04086*%
%ADD18R,0.05118X0.04724*%
%ADD19R,0.06394X0.05394*%
%ADD20R,0.03543X0.01575*%
%ADD21R,0.01575X0.03543*%
%ADD22R,0.06299X0.06299*%
%ADD23C,0.06594*%
%ADD24C,0.00100*%
%ADD25C,0.01378*%
%ADD26C,0.05000*%
%ADD27R,0.05394X0.06394*%
%ADD28R,0.01969X0.05709*%
%ADD29R,0.11418X0.08268*%
%ADD30R,0.05906X0.09054*%
%ADD31O,0.04331X0.04331*%
%ADD32C,0.04528*%
%ADD33R,0.07394X0.07394*%
%ADD34R,0.02559X0.06102*%
%ADD35C,0.04331*%
%ADD36C,0.01654*%
%ADD37R,0.03976X0.03976*%
%ADD38R,0.03976X0.05376*%
%ADD39R,0.01693X0.08268*%
%ADD40R,0.08268X0.01693*%
%ADD41C,0.06378*%
%ADD42R,0.03898X0.04398*%
%ADD43R,0.02756X0.07677*%
%ADD44C,0.02480*%
%ADD45C,0.01500*%
%ADD46C,0.01575*%
D11*
X285882Y415262D02*
X545725Y415262D01*
X545725Y884947*
X285882Y884947*
X285882Y415262*
D12*
G36*
X685804Y86797D02*
X708758Y86807D01*
X709804Y88897*
X700804Y97897*
X699604Y100597*
X699604Y103897*
X699904Y105097*
X701104Y107197*
X702304Y108397*
X703804Y109297*
X705604Y109897*
X707704Y110197*
X750304Y110197*
X747904Y103897*
X747604Y103597*
X737704Y103597*
X728104Y80797*
X721204Y80797*
X730504Y102697*
X730504Y103597*
X706804Y103597*
X706204Y103297*
X705904Y102697*
X705904Y101797*
X706204Y101497*
X714904Y93097*
X715804Y91597*
X716104Y90097*
X716404Y89797*
X716404Y87097*
G75*
G02X711604Y80797I-08949J01839*
G01X683404Y80797*
X683404Y81397*
X685504Y86497*
X685804Y86797*
G37*
X708758Y86807*
X709804Y88897*
X700804Y97897*
X699604Y100597*
X699604Y103897*
X699904Y105097*
X701104Y107197*
X702304Y108397*
X703804Y109297*
X705604Y109897*
X707704Y110197*
X750304Y110197*
X747904Y103897*
X747604Y103597*
X737704Y103597*
X728104Y80797*
X721204Y80797*
X730504Y102697*
X730504Y103597*
X706804Y103597*
X706204Y103297*
X705904Y102697*
X705904Y101797*
X706204Y101497*
X714904Y93097*
X715804Y91597*
X716104Y90097*
X716404Y89797*
X716404Y87097*
G75*
G02X711604Y80797I-08949J01839*
G01X683404Y80797*
X683404Y81397*
X685504Y86497*
X685804Y86797*
X202051Y49689D02*
X632051Y49689D01*
D13*
X197051Y129689D02*
X637051Y129689D01*
X67050Y29689D02*
X187051Y29689D01*
D12*
X202051Y84689D02*
X632051Y84689D01*
D13*
X197051Y119689D02*
X637051Y119689D01*
D12*
X684004Y80197D02*
X683404Y80797D01*
X683404Y81397*
X695404Y110497*
G75*
G02X702004Y115597I08543J-04235*
G01X751804Y115597*
X752104Y115297*
X752104Y114097*
X740104Y85297*
G75*
G02X733504Y80197I-08825J04600*
G01X684004Y80197*
D13*
X637051Y129689D02*
X637051Y169689D01*
X57051Y179689D02*
X807051Y179689D01*
X67050Y124689D02*
X187051Y124689D01*
X67050Y169689D02*
X187051Y169689D01*
X197051Y169689D02*
X637051Y169689D01*
X197051Y29689D02*
X197051Y119689D01*
X197051Y129689D02*
X197051Y169689D01*
X67050Y29689D02*
X67050Y169689D01*
X637051Y29689D02*
X637051Y119689D01*
X647051Y169689D02*
X797051Y169689D01*
X647051Y29689D02*
X797051Y29689D01*
X19649Y19689D02*
X19649Y1149611D01*
X19649Y19689D02*
X807051Y19689D01*
X57051Y19689D02*
X57051Y179689D01*
X187051Y29689D02*
X187051Y169689D01*
X647051Y29689D02*
X647051Y169689D01*
X797051Y29689D02*
X797051Y169689D01*
X67050Y79689D02*
X187051Y79689D01*
X807051Y19689D02*
X807051Y1149611D01*
X197051Y29689D02*
X637051Y29689D01*
X19649Y1149611D02*
X807051Y1149611D01*
D14*
X450804Y811797D03*
D15*
X450804Y801797D03*
X450804Y791797D03*
X450804Y781797D03*
D16*
X428439Y446953D03*
X423714Y446953D03*
D17*
X420528Y666049D03*
X420528Y670774D03*
D18*
X455863Y420537D03*
X455863Y427230D03*
D19*
X452221Y688305D03*
X452221Y699305D03*
D18*
X374071Y687506D03*
X374071Y680813D03*
D16*
X428697Y452211D03*
X423973Y452211D03*
X494416Y708047D03*
X489691Y708047D03*
X488048Y433963D03*
X483323Y433963D03*
D17*
X353796Y831994D03*
X353796Y827270D03*
X353796Y811522D03*
X353796Y816246D03*
D16*
X475666Y596797D03*
X470941Y596797D03*
X471315Y422151D03*
X466591Y422151D03*
D18*
X495528Y420774D03*
X495528Y427466D03*
D17*
X358323Y695183D03*
X358323Y699907D03*
X477054Y716935D03*
X477054Y721659D03*
X344150Y707781D03*
X344150Y712506D03*
X410804Y814159D03*
X410804Y809435D03*
D16*
X457733Y707585D03*
X462457Y707585D03*
D17*
X433520Y703254D03*
X433520Y707978D03*
X482054Y716935D03*
X482054Y721659D03*
X399071Y452073D03*
X399071Y447348D03*
D16*
X373284Y543214D03*
X378008Y543214D03*
D17*
X381945Y699907D03*
X381945Y704632D03*
D16*
X495134Y433963D03*
X499859Y433963D03*
D20*
X472398Y698844D03*
X472398Y700813D03*
X472398Y702781D03*
X472398Y704750D03*
D21*
X475351Y707703D03*
X477319Y707703D03*
X479288Y707703D03*
X481256Y707703D03*
D20*
X484209Y704750D03*
X484209Y702781D03*
X484209Y700813D03*
X484209Y698844D03*
D21*
X481256Y695892D03*
X479288Y695892D03*
X477319Y695892D03*
X475351Y695892D03*
D22*
X478304Y701797D03*
D23*
X433556Y696777D03*
X413556Y696777D03*
D14*
X310804Y841797D03*
D15*
X310804Y831797D03*
X310804Y821797D03*
X310804Y811797D03*
X310804Y801797D03*
X310804Y791797D03*
D24*
G36*
X443225Y779829D02*
X433382Y779829D01*
X433382Y783766*
X443225Y783766*
X443225Y779829*
G37*
X433382Y779829*
X433382Y783766*
X443225Y783766*
X443225Y779829*
D25*
X440272Y781797D03*
X435941Y781797D03*
D26*
X505804Y809297D03*
X505804Y829297D03*
D27*
X355949Y563687D03*
X344949Y563687D03*
D17*
X358323Y707781D03*
X358323Y712506D03*
D24*
G36*
X469938Y503844D02*
X479780Y503844D01*
X479780Y499907*
X469938Y499907*
X469938Y503844*
G37*
X479780Y503844*
X479780Y499907*
X469938Y499907*
X469938Y503844*
D25*
X472890Y501876D03*
X477221Y501876D03*
D24*
G36*
X443225Y789829D02*
X433382Y789829D01*
X433382Y793766*
X443225Y793766*
X443225Y789829*
G37*
X433382Y789829*
X433382Y793766*
X443225Y793766*
X443225Y789829*
D25*
X440272Y791797D03*
X435941Y791797D03*
D18*
X345804Y686394D03*
X345804Y679701D03*
D28*
X410686Y433963D03*
X413245Y433963D03*
X415804Y433963D03*
X418363Y433963D03*
X420922Y433963D03*
D29*
X415804Y421365D03*
D30*
X432241Y423333D03*
X399367Y423333D03*
D31*
X424564Y421463D03*
X407044Y421463D03*
D32*
X424564Y435242D03*
X407044Y435242D03*
D16*
X415041Y541172D03*
X410316Y541172D03*
X389819Y543214D03*
X385095Y543214D03*
X441788Y665262D03*
X437064Y665262D03*
X404416Y541172D03*
X399691Y541172D03*
X356749Y655026D03*
X361473Y655026D03*
D17*
X363048Y681797D03*
X363048Y686522D03*
D18*
X358304Y686394D03*
X358304Y679701D03*
D17*
X403835Y452073D03*
X403835Y447348D03*
X395804Y681935D03*
X395804Y686659D03*
X348875Y707781D03*
X348875Y712506D03*
D16*
X345941Y639297D03*
X350666Y639297D03*
D17*
X413835Y703254D03*
X413835Y707978D03*
D14*
X310804Y766797D03*
D15*
X310804Y776797D03*
D17*
X472054Y647909D03*
X472054Y643185D03*
X367772Y681797D03*
X367772Y686522D03*
X472054Y721659D03*
X472054Y716935D03*
X494554Y716935D03*
X494554Y721659D03*
D16*
X411079Y559750D03*
X406355Y559750D03*
D17*
X380371Y681797D03*
X380371Y686522D03*
D16*
X356749Y659750D03*
X361473Y659750D03*
D33*
X360804Y781797D03*
D15*
X350804Y781797D03*
D16*
X457733Y712506D03*
X462457Y712506D03*
X483126Y422151D03*
X478402Y422151D03*
X462457Y717427D03*
X457733Y717427D03*
D17*
X446512Y666049D03*
X446512Y670774D03*
D14*
X520804Y871797D03*
D15*
X520804Y861797D03*
D16*
X411079Y670774D03*
X415804Y670774D03*
X467575Y689868D03*
X472300Y689868D03*
X474071Y617230D03*
X469347Y617230D03*
D17*
X432339Y666049D03*
X432339Y670774D03*
D34*
X464229Y439179D03*
X467969Y439179D03*
X471709Y439179D03*
X471709Y430714D03*
X464229Y430714D03*
D35*
X424442Y869297D03*
X407142Y869297D03*
D14*
X310804Y871797D03*
D15*
X310804Y861797D03*
D17*
X425252Y666049D03*
X425252Y670774D03*
D16*
X433166Y559297D03*
X428441Y559297D03*
D17*
X401429Y557909D03*
X401429Y553185D03*
D36*
X417772Y449711D03*
X417772Y451679D03*
X415804Y447742D03*
X415804Y449711D03*
X415804Y451679D03*
X413835Y447742D03*
X413835Y449711D03*
X413835Y451679D03*
X411867Y447742D03*
X411867Y449711D03*
X411867Y451679D03*
D17*
X348875Y695183D03*
X348875Y699907D03*
D37*
X439219Y442884D03*
X446719Y442884D03*
D38*
X443019Y434884D03*
D24*
G36*
X468225Y809829D02*
X458382Y809829D01*
X458382Y813766*
X468225Y813766*
X468225Y809829*
G37*
X458382Y809829*
X458382Y813766*
X468225Y813766*
X468225Y809829*
D25*
X465272Y811797D03*
X460941Y811797D03*
D17*
X353599Y695183D03*
X353599Y699907D03*
D16*
X464426Y700695D03*
X459701Y700695D03*
D18*
X504386Y420774D03*
X504386Y427466D03*
D16*
X413166Y481172D03*
X408441Y481172D03*
D17*
X393756Y699907D03*
X393756Y704632D03*
D16*
X360316Y599922D03*
X365041Y599922D03*
D17*
X405961Y814277D03*
X405961Y809553D03*
D39*
X381355Y654120D03*
X383323Y654120D03*
X385292Y654120D03*
X387260Y654120D03*
X389229Y654120D03*
X391197Y654120D03*
X393166Y654120D03*
X395134Y654120D03*
X397103Y654120D03*
X399071Y654120D03*
X401040Y654120D03*
X403008Y654120D03*
X404977Y654120D03*
X406945Y654120D03*
X408914Y654120D03*
X410882Y654120D03*
X412851Y654120D03*
X414819Y654120D03*
X416788Y654120D03*
X418756Y654120D03*
X420725Y654120D03*
X422693Y654120D03*
X424662Y654120D03*
X426630Y654120D03*
X428599Y654120D03*
X430567Y654120D03*
X432536Y654120D03*
X434504Y654120D03*
X436473Y654120D03*
X438441Y654120D03*
X440410Y654120D03*
X442378Y654120D03*
X444347Y654120D03*
X446315Y654120D03*
X448284Y654120D03*
X450252Y654120D03*
D40*
X458126Y646246D03*
X458126Y644277D03*
X458126Y642309D03*
X458126Y640340D03*
X458126Y638372D03*
X458126Y636403D03*
X458126Y634435D03*
X458126Y632466D03*
X458126Y630498D03*
X458126Y628529D03*
X458126Y626561D03*
X458126Y624592D03*
X458126Y622624D03*
X458126Y620655D03*
X458126Y618687D03*
X458126Y616718D03*
X458126Y614750D03*
X458126Y612781D03*
X458126Y610813D03*
X458126Y608844D03*
X458126Y606876D03*
X458126Y604907D03*
X458126Y602939D03*
X458126Y600970D03*
X458126Y599002D03*
X458126Y597033D03*
X458126Y595065D03*
X458126Y593096D03*
X458126Y591128D03*
X458126Y589159D03*
X458126Y587191D03*
X458126Y585222D03*
X458126Y583254D03*
X458126Y581285D03*
X458126Y579317D03*
X458126Y577348D03*
D39*
X450252Y569474D03*
X448284Y569474D03*
X446315Y569474D03*
X444347Y569474D03*
X442378Y569474D03*
X440410Y569474D03*
X438441Y569474D03*
X436473Y569474D03*
X434504Y569474D03*
X432536Y569474D03*
X430567Y569474D03*
X428599Y569474D03*
X426630Y569474D03*
X424662Y569474D03*
X422693Y569474D03*
X420725Y569474D03*
X418756Y569474D03*
X416788Y569474D03*
X414819Y569474D03*
X412851Y569474D03*
X410882Y569474D03*
X408914Y569474D03*
X406945Y569474D03*
X404977Y569474D03*
X403008Y569474D03*
X401040Y569474D03*
X399071Y569474D03*
X397103Y569474D03*
X395134Y569474D03*
X393166Y569474D03*
X391197Y569474D03*
X389229Y569474D03*
X387260Y569474D03*
X385292Y569474D03*
X383323Y569474D03*
X381355Y569474D03*
D40*
X373481Y577348D03*
X373481Y579317D03*
X373481Y581285D03*
X373481Y583254D03*
X373481Y585222D03*
X373481Y587191D03*
X373481Y589159D03*
X373481Y591128D03*
X373481Y593096D03*
X373481Y595065D03*
X373481Y597033D03*
X373481Y599002D03*
X373481Y600970D03*
X373481Y602939D03*
X373481Y604907D03*
X373481Y606876D03*
X373481Y608844D03*
X373481Y610813D03*
X373481Y612781D03*
X373481Y614750D03*
X373481Y616718D03*
X373481Y618687D03*
X373481Y620655D03*
X373481Y622624D03*
X373481Y624592D03*
X373481Y626561D03*
X373481Y628529D03*
X373481Y630498D03*
X373481Y632466D03*
X373481Y634435D03*
X373481Y636403D03*
X373481Y638372D03*
X373481Y640340D03*
X373481Y642309D03*
X373481Y644277D03*
X373481Y646246D03*
D41*
X374735Y652867D03*
D35*
X496906Y442545D03*
X496906Y673648D03*
X334701Y442545D03*
D24*
G36*
X386276Y781403D02*
X386276Y791246D01*
X390213Y791246*
X390213Y781403*
X386276Y781403*
G37*
X386276Y791246*
X390213Y791246*
X390213Y781403*
X386276Y781403*
D25*
X388245Y784356D03*
X388245Y788687D03*
D17*
X344150Y695183D03*
X344150Y699907D03*
X454554Y547909D03*
X454554Y543185D03*
X353599Y707781D03*
X353599Y712506D03*
D18*
X338929Y686394D03*
X338929Y679701D03*
D16*
X441367Y449251D03*
X446091Y449251D03*
D42*
X446268Y678057D03*
X452268Y678057D03*
D24*
G36*
X479780Y494002D02*
X469938Y494002D01*
X469938Y497939*
X479780Y497939*
X479780Y494002*
G37*
X469938Y494002*
X469938Y497939*
X479780Y497939*
X479780Y494002*
D25*
X476827Y495970D03*
X472497Y495970D03*
D18*
X442969Y420577D03*
X442969Y427270D03*
D19*
X442378Y688305D03*
X442378Y699305D03*
D16*
X462457Y722348D03*
X457733Y722348D03*
X357536Y621955D03*
X362260Y621955D03*
D18*
X352054Y686394D03*
X352054Y679701D03*
D17*
X469347Y551482D03*
X469347Y556207D03*
D16*
X451827Y672151D03*
X456552Y672151D03*
D18*
X488304Y722644D03*
X488304Y715951D03*
D27*
X423099Y463490D03*
X434099Y463490D03*
D16*
X394544Y481010D03*
X389819Y481010D03*
D17*
X467679Y647909D03*
X467679Y643185D03*
D19*
X470922Y574699D03*
X470922Y563699D03*
D16*
X345941Y644297D03*
X350666Y644297D03*
D23*
X360823Y811761D03*
X360823Y831761D03*
D17*
X364554Y566935D03*
X364554Y571659D03*
D16*
X456552Y667230D03*
X451827Y667230D03*
X489691Y696797D03*
X494416Y696797D03*
D14*
X310804Y751797D03*
D15*
X320804Y751797D03*
X310804Y741797D03*
X320804Y741797D03*
X310804Y731797D03*
X320804Y731797D03*
X310804Y721797D03*
X320804Y721797D03*
X310804Y711797D03*
X320804Y711797D03*
X310804Y701797D03*
X320804Y701797D03*
X310804Y691797D03*
X320804Y691797D03*
X310804Y681797D03*
X320804Y681797D03*
X310804Y671797D03*
X320804Y671797D03*
X310804Y661797D03*
X320804Y661797D03*
X310804Y651797D03*
X320804Y651797D03*
X310804Y641797D03*
X320804Y641797D03*
X310804Y631797D03*
X320804Y631797D03*
X310804Y621797D03*
X320804Y621797D03*
X310804Y611797D03*
X320804Y611797D03*
X310804Y601797D03*
X320804Y601797D03*
X310804Y591797D03*
X320804Y591797D03*
X310804Y581797D03*
X320804Y581797D03*
X310804Y571797D03*
X320804Y571797D03*
X310804Y561797D03*
X320804Y561797D03*
X310804Y551797D03*
X320804Y551797D03*
X310804Y541797D03*
X320804Y541797D03*
X310804Y531797D03*
X320804Y531797D03*
X310804Y521797D03*
X320804Y521797D03*
X310804Y511797D03*
X320804Y511797D03*
X310804Y501797D03*
X320804Y501797D03*
X310804Y491797D03*
X320804Y491797D03*
X310804Y481797D03*
X320804Y481797D03*
X310804Y471797D03*
X320804Y471797D03*
X310804Y461797D03*
X320804Y461797D03*
X310804Y451797D03*
X320804Y451797D03*
X310804Y441797D03*
X320804Y441797D03*
D43*
X372359Y534041D03*
X375508Y534041D03*
X378658Y534041D03*
X381808Y534041D03*
X384957Y534041D03*
X388107Y534041D03*
X391256Y534041D03*
X394406Y534041D03*
X397556Y534041D03*
X400705Y534041D03*
X403855Y534041D03*
X407004Y534041D03*
X410154Y534041D03*
X413304Y534041D03*
X416453Y534041D03*
X419603Y534041D03*
X422752Y534041D03*
X425902Y534041D03*
X429052Y534041D03*
X432201Y534041D03*
X435351Y534041D03*
X438501Y534041D03*
X441650Y534041D03*
X444800Y534041D03*
X447949Y534041D03*
X451099Y534041D03*
X454249Y534041D03*
X454249Y489553D03*
X451099Y489553D03*
X447949Y489553D03*
X444800Y489553D03*
X441650Y489553D03*
X438501Y489553D03*
X435351Y489553D03*
X432201Y489553D03*
X429052Y489553D03*
X425902Y489553D03*
X422752Y489553D03*
X419603Y489553D03*
X416453Y489553D03*
X413304Y489553D03*
X410154Y489553D03*
X407004Y489553D03*
X403855Y489553D03*
X400705Y489553D03*
X397556Y489553D03*
X394406Y489553D03*
X391256Y489553D03*
X388107Y489553D03*
X384957Y489553D03*
X381808Y489553D03*
X378658Y489553D03*
X375508Y489553D03*
X372359Y489553D03*
D24*
G36*
X330882Y641266D02*
X340725Y641266D01*
X340725Y637329*
X330882Y637329*
X330882Y641266*
G37*
X340725Y641266*
X340725Y637329*
X330882Y637329*
X330882Y641266*
D25*
X333835Y639297D03*
X338166Y639297D03*
D24*
G36*
X434308Y689081D02*
X434308Y679238D01*
X430371Y679238*
X430371Y689081*
X434308Y689081*
G37*
X434308Y679238*
X430371Y679238*
X430371Y689081*
X434308Y689081*
D25*
X432339Y686128D03*
X432339Y681797D03*
D24*
G36*
X353225Y604829D02*
X343382Y604829D01*
X343382Y608766*
X353225Y608766*
X353225Y604829*
G37*
X343382Y604829*
X343382Y608766*
X353225Y608766*
X353225Y604829*
D25*
X350272Y606797D03*
X345941Y606797D03*
D24*
G36*
X468225Y799829D02*
X458382Y799829D01*
X458382Y803766*
X468225Y803766*
X468225Y799829*
G37*
X458382Y799829*
X458382Y803766*
X468225Y803766*
X468225Y799829*
D25*
X465272Y801797D03*
X460941Y801797D03*
D24*
G36*
X333126Y774514D02*
X323284Y774514D01*
X323284Y778451*
X333126Y778451*
X333126Y774514*
G37*
X323284Y774514*
X323284Y778451*
X333126Y778451*
X333126Y774514*
D25*
X330174Y776482D03*
X325843Y776482D03*
D24*
G36*
X428008Y689081D02*
X428008Y679238D01*
X424071Y679238*
X424071Y689081*
X428008Y689081*
G37*
X428008Y679238*
X424071Y679238*
X424071Y689081*
X428008Y689081*
D25*
X426040Y686128D03*
X426040Y681797D03*
D24*
G36*
X353225Y582329D02*
X343382Y582329D01*
X343382Y586266*
X353225Y586266*
X353225Y582329*
G37*
X343382Y582329*
X343382Y586266*
X353225Y586266*
X353225Y582329*
D25*
X350272Y584297D03*
X345941Y584297D03*
D24*
G36*
X422497Y689081D02*
X422497Y679238D01*
X418560Y679238*
X418560Y689081*
X422497Y689081*
G37*
X422497Y679238*
X418560Y679238*
X418560Y689081*
X422497Y689081*
D25*
X420528Y686128D03*
X420528Y681797D03*
D24*
G36*
X468225Y789829D02*
X458382Y789829D01*
X458382Y793766*
X468225Y793766*
X468225Y789829*
G37*
X458382Y789829*
X458382Y793766*
X468225Y793766*
X468225Y789829*
D25*
X465272Y791797D03*
X460941Y791797D03*
D24*
G36*
X353225Y589829D02*
X343382Y589829D01*
X343382Y593766*
X353225Y593766*
X353225Y589829*
G37*
X343382Y589829*
X343382Y593766*
X353225Y593766*
X353225Y589829*
D25*
X350272Y591797D03*
X345941Y591797D03*
D24*
G36*
X403008Y791246D02*
X403008Y781403D01*
X399071Y781403*
X399071Y791246*
X403008Y791246*
G37*
X403008Y781403*
X399071Y781403*
X399071Y791246*
X403008Y791246*
D25*
X401040Y788293D03*
X401040Y783963D03*
D14*
X510804Y751797D03*
D15*
X520804Y751797D03*
X510804Y741797D03*
X520804Y741797D03*
X510804Y731797D03*
X520804Y731797D03*
X510804Y721797D03*
X520804Y721797D03*
X510804Y711797D03*
X520804Y711797D03*
X510804Y701797D03*
X520804Y701797D03*
X510804Y691797D03*
X520804Y691797D03*
X510804Y681797D03*
X520804Y681797D03*
X510804Y671797D03*
X520804Y671797D03*
X510804Y661797D03*
X520804Y661797D03*
X510804Y651797D03*
X520804Y651797D03*
X510804Y641797D03*
X520804Y641797D03*
X510804Y631797D03*
X520804Y631797D03*
X510804Y621797D03*
X520804Y621797D03*
X510804Y611797D03*
X520804Y611797D03*
X510804Y601797D03*
X520804Y601797D03*
X510804Y591797D03*
X520804Y591797D03*
X510804Y581797D03*
X520804Y581797D03*
X510804Y571797D03*
X520804Y571797D03*
X510804Y561797D03*
X520804Y561797D03*
X510804Y551797D03*
X520804Y551797D03*
X510804Y541797D03*
X520804Y541797D03*
X510804Y531797D03*
X520804Y531797D03*
X510804Y521797D03*
X520804Y521797D03*
X510804Y511797D03*
X520804Y511797D03*
X510804Y501797D03*
X520804Y501797D03*
X510804Y491797D03*
X520804Y491797D03*
X510804Y481797D03*
X520804Y481797D03*
X510804Y471797D03*
X520804Y471797D03*
X510804Y461797D03*
X520804Y461797D03*
X510804Y451797D03*
X520804Y451797D03*
X510804Y441797D03*
X520804Y441797D03*
D24*
G36*
X443225Y799829D02*
X433382Y799829D01*
X433382Y803766*
X443225Y803766*
X443225Y799829*
G37*
X433382Y799829*
X433382Y803766*
X443225Y803766*
X443225Y799829*
D25*
X440272Y801797D03*
X435941Y801797D03*
D24*
G36*
X323284Y787309D02*
X333126Y787309D01*
X333126Y783372*
X323284Y783372*
X323284Y787309*
G37*
X333126Y787309*
X333126Y783372*
X323284Y783372*
X323284Y787309*
D25*
X326237Y785340D03*
X330567Y785340D03*
D24*
G36*
X393166Y781403D02*
X393166Y791246D01*
X397103Y791246*
X397103Y781403*
X393166Y781403*
G37*
X393166Y791246*
X397103Y791246*
X397103Y781403*
X393166Y781403*
D25*
X395134Y784356D03*
X395134Y788687D03*
D24*
G36*
X443225Y809829D02*
X433382Y809829D01*
X433382Y813766*
X443225Y813766*
X443225Y809829*
G37*
X433382Y809829*
X433382Y813766*
X443225Y813766*
X443225Y809829*
D25*
X440272Y811797D03*
X435941Y811797D03*
D24*
G36*
X393363Y688293D02*
X393363Y678451D01*
X389426Y678451*
X389426Y688293*
X393363Y688293*
G37*
X393363Y678451*
X389426Y678451*
X389426Y688293*
X393363Y688293*
D25*
X391394Y685340D03*
X391394Y681010D03*
D24*
G36*
X387851Y688293D02*
X387851Y678451D01*
X383914Y678451*
X383914Y688293*
X387851Y688293*
G37*
X387851Y678451*
X383914Y678451*
X383914Y688293*
X387851Y688293*
D25*
X385882Y685340D03*
X385882Y681010D03*
D24*
G36*
X468225Y779829D02*
X458382Y779829D01*
X458382Y783766*
X468225Y783766*
X468225Y779829*
G37*
X458382Y779829*
X458382Y783766*
X468225Y783766*
X468225Y779829*
D25*
X465272Y781797D03*
X460941Y781797D03*
D24*
G36*
X353225Y597329D02*
X343382Y597329D01*
X343382Y601266*
X353225Y601266*
X353225Y597329*
G37*
X343382Y597329*
X343382Y601266*
X353225Y601266*
X353225Y597329*
D25*
X350272Y599297D03*
X345941Y599297D03*
D44*
X80804Y41797D02*
X80804Y48687*
X82182Y46718D01*
X89071Y46718*
X90449Y48687*
X90449Y54592*
X89071Y56561*
X82182Y56561*
X80804Y58529*
X80804Y63451*
X82182Y65419*
X89071Y65419*
X90449Y63451*
X99406Y46718D02*
X99062Y46718D01*
X99062Y47703*
X99406Y47703*
X99406Y46718*
X105607Y46718D02*
X105607Y65419D01*
X111808Y46718*
X118008Y65419*
X118008Y46718*
X124209Y46718D02*
X123865Y46718D01*
X123865Y47703*
X124209Y47703*
X124209Y46718*
X140056Y46718D02*
X130410Y46718D01*
X130410Y65419*
X140056Y65419*
X140056Y56561D02*
X130410Y56561D01*
X149012Y46718D02*
X148668Y46718D01*
X148668Y47703*
X149012Y47703*
X149012Y46718*
X164859Y46718D02*
X155213Y46718D01*
X155213Y65419*
X164859Y65419*
X164859Y56561D02*
X155213Y56561D01*
X173815Y46718D02*
X173471Y46718D01*
X173471Y47703*
X173815Y47703*
X173815Y46718*
D45*
X73284Y149514D02*
X73284Y159514*
X77451Y159514D01*
X79117Y158680*
X79951Y157014*
X79951Y154097*
X79117Y152430*
X77451Y151597*
X73284Y151597*
X74951Y151597D02*
X74951Y159514D01*
X83284Y151597D02*
X86617Y159514D01*
X89950Y151597*
X84534Y154514D02*
X88700Y154514D01*
X93283Y159514D02*
X99950Y159514D01*
X96617Y159514D02*
X96617Y151597D01*
X109116Y151597D02*
X103283Y151597D01*
X103283Y159514*
X109116Y159514*
X109116Y155764D02*
X103283Y155764D01*
X114533Y151597D02*
X114324Y151597D01*
X114324Y152014*
X114533Y152014*
X114533Y151597*
X114533Y155764D02*
X114324Y155764D01*
X114324Y156180*
X114533Y156180*
X114533Y155764*
X73284Y133766D02*
X73284Y142932*
X74117Y143766D01*
X78284Y143766*
X79117Y142932*
X79117Y140849*
X78284Y140016*
X75784Y140016*
X78284Y140016*
X79117Y139182*
X79117Y137099*
X78284Y135849*
X74117Y135849*
X73284Y136682*
X89117Y136682D02*
X88284Y135849D01*
X84117Y135849*
X83284Y136682*
X83284Y142932*
X84117Y143766*
X88284Y143766*
X89117Y142932*
X89117Y136682*
X83284Y136682D02*
X89117Y142932D01*
X93283Y135849D02*
X99950Y143766D01*
X109116Y136682D02*
X108283Y135849D01*
X104116Y135849*
X103283Y136682*
X103283Y142932*
X104116Y143766*
X108283Y143766*
X109116Y142932*
X109116Y136682*
X103283Y136682D02*
X109116Y142932D01*
X117449Y135849D02*
X117449Y143766D01*
X113283Y138766*
X119116Y138766*
X123282Y135849D02*
X129949Y143766D01*
X133282Y142932D02*
X134115Y143766D01*
X138282Y143766*
X139115Y142932*
X139115Y141266*
X138282Y140432*
X133282Y135849*
X139115Y135849*
X149115Y136682D02*
X148282Y135849D01*
X144115Y135849*
X143282Y136682*
X143282Y142932*
X144115Y143766*
X148282Y143766*
X149115Y142932*
X149115Y136682*
X143282Y136682D02*
X149115Y142932D01*
X154740Y135849D02*
X154740Y143766D01*
X153906Y142099*
X158281Y142932D02*
X159115Y143766D01*
X163281Y143766*
X164115Y142932*
X164115Y140849*
X163281Y140016*
X160781Y140016*
X163281Y140016*
X164115Y139182*
X164115Y137099*
X163281Y135849*
X159115Y135849*
X158281Y136682*
D46*
X206657Y53154D02*
X206657Y56025*
X206657Y66934D01*
X211824Y56025*
X216992Y66934*
X216992Y56025*
X220436Y56025D02*
X220436Y66934D01*
X228474Y66934*
X229623Y65785*
X229623Y62914*
X228474Y61766*
X220436Y61766D02*
X228474Y61766D01*
X229623Y60618*
X229623Y57173*
X228474Y56025*
X220436Y56025*
X236225Y56025D02*
X236225Y66934D01*
X235077Y64637*
X249143Y57173D02*
X247995Y56025D01*
X242253Y56025*
X241105Y57173*
X241105Y65785*
X242253Y66934*
X247995Y66934*
X249143Y65785*
X249143Y57173*
X241105Y57173D02*
X249143Y65785D01*
X254884Y66934D02*
X262922Y66934D01*
X256033Y56025*
X268664Y57173D02*
X269812Y56025D01*
X275553Y56025*
X276702Y57173*
X276702Y61192*
X275553Y62340*
X269812Y62340*
X268664Y61192*
X268664Y66934*
X276702Y66934*
X282443Y56025D02*
X282443Y66934D01*
X290481Y66934*
X291629Y65785*
X291629Y62914*
X290481Y61766*
X282443Y61766D02*
X290481Y61766D01*
X291629Y60618*
X291629Y57173*
X290481Y56025*
X282443Y56025*
X207142Y141640D02*
X207142Y145659*
X208291Y144510D01*
X214032Y144510*
X215180Y145659*
X215180Y149104*
X214032Y150252*
X208291Y150252*
X207142Y151400*
X207142Y154271*
X208291Y155419*
X214032Y155419*
X215180Y154271*
X230108Y146233D02*
X228385Y144510D01*
X222644Y144510*
X220921Y146233*
X220921Y153697*
X222644Y155419*
X228385Y155419*
X230108Y153697*
X230108Y146233*
X242739Y144510D02*
X234701Y144510D01*
X234701Y155419*
X248480Y155419D02*
X254221Y155419D01*
X256518Y154271*
X257666Y151974*
X257666Y147955*
X256518Y145659*
X254221Y144510*
X248480Y144510*
X250776Y144510D02*
X250776Y155419D01*
X270297Y144510D02*
X262259Y144510D01*
X262259Y155419*
X270297Y155419*
X270297Y150252D02*
X262259Y150252D01*
X276038Y144510D02*
X276038Y155419D01*
X284076Y155419*
X285225Y154271*
X285225Y151400*
X284076Y150252*
X276038Y150252*
X282928Y150252D02*
X284076Y150252D01*
X285225Y144510*
X299004Y141640D02*
X303597Y144510*
X303597Y155419D01*
X308764Y144510*
X313931Y155419*
X313931Y144510*
X317376Y144510D02*
X321969Y155419D01*
X326562Y144510*
X319098Y148529D02*
X324840Y148529D01*
X331155Y145659D02*
X332303Y144510D01*
X338045Y144510*
X339193Y145659*
X339193Y149104*
X338045Y150252*
X332303Y150252*
X331155Y151400*
X331155Y154271*
X332303Y155419*
X338045Y155419*
X339193Y154271*
X344934Y144510D02*
X344934Y155419D01*
X344934Y150252D02*
X345509Y150252D01*
X352972Y155419*
X345509Y150252D02*
X352972Y144510D01*
X367900Y141640D02*
X372493Y144510*
X372493Y155419D01*
X380531Y155419*
X381679Y154271*
X381679Y151400*
X380531Y150252*
X372493Y150252D02*
X380531Y150252D01*
X381679Y149104*
X381679Y145659*
X380531Y144510*
X372493Y144510*
X395458Y146233D02*
X393736Y144510D01*
X387994Y144510*
X386272Y146233*
X386272Y153697*
X387994Y155419*
X393736Y155419*
X395458Y153697*
X395458Y146233*
X400051Y155419D02*
X409238Y155419D01*
X404644Y155419D02*
X404644Y144510D01*
X413830Y155419D02*
X423017Y155419D01*
X418424Y155419D02*
X418424Y144510D01*
X436796Y146233D02*
X435074Y144510D01*
X429332Y144510*
X427610Y146233*
X427610Y153697*
X429332Y155419*
X435074Y155419*
X436796Y153697*
X436796Y146233*
X441389Y144510D02*
X441389Y155419D01*
X446556Y144510*
X451724Y155419*
X451724Y144510*
X464354Y141640D02*
X476985Y144510*
X468947Y144510D01*
X468947Y155419*
X482726Y144510D02*
X487320Y155419D01*
X491913Y144510*
X484449Y148529D02*
X490190Y148529D01*
X496506Y155419D02*
X501099Y150252D01*
X505692Y155419*
X501099Y150252D02*
X501099Y144510D01*
X518323Y144510D02*
X510285Y144510D01*
X510285Y155419*
X518323Y155419*
X518323Y150252D02*
X510285Y150252D01*
X524064Y144510D02*
X524064Y155419D01*
X532102Y155419*
X533250Y154271*
X533250Y151400*
X532102Y150252*
X524064Y150252*
X530954Y150252D02*
X532102Y150252D01*
X533250Y144510*
X206657Y88587D02*
X206657Y92606*
X207805Y91458D01*
X213547Y91458*
X214695Y92606*
X214695Y96051*
X213547Y97199*
X207805Y97199*
X206657Y98348*
X206657Y101218*
X207805Y102367*
X213547Y102367*
X214695Y101218*
X220436Y102367D02*
X229623Y102367D01*
X225029Y102367D02*
X225029Y91458D01*
X234216Y91458D02*
X234216Y102367D01*
X239383Y91458*
X244550Y102367*
X244550Y91458*
X247995Y101218D02*
X249143Y102367D01*
X254884Y102367*
X256033Y101218*
X256033Y98348*
X254884Y97199*
X251440Y97199*
X254884Y97199*
X256033Y96051*
X256033Y93180*
X254884Y91458*
X249143Y91458*
X247995Y92606*
X261774Y101218D02*
X262922Y102367D01*
X268664Y102367*
X269812Y101218*
X269812Y98922*
X268664Y97773*
X261774Y91458*
X269812Y91458*
X275553Y91458D02*
X275553Y102367D01*
X283591Y102367*
X283591Y97199D02*
X275553Y97199D01*
X295074Y91458D02*
X295074Y102367D01*
X289332Y95477*
X297370Y95477*
X303112Y101218D02*
X304260Y102367D01*
X310001Y102367*
X311150Y101218*
X311150Y98922*
X310001Y97773*
X303112Y91458*
X311150Y91458*
X324929Y97773D02*
X323781Y96625D01*
X317465Y96625*
X316891Y97773*
X316891Y101218*
X318039Y102367*
X323781Y102367*
X324929Y101218*
X324929Y92606*
X323781Y91458*
X318039Y91458*
X316891Y92606*
X331818Y97199D02*
X338708Y97199D01*
X351339Y97199D02*
X350191Y98348D01*
X345597Y98348*
X344449Y97199*
X344449Y92606*
X345597Y91458*
X350191Y91458*
X351339Y92606*
X351339Y91458D02*
X351339Y102367D01*
X360525Y91458D02*
X360525Y97773D01*
X360525Y101792D02*
X360525Y102367D01*
X359951Y91458D02*
X361099Y91458D01*
X365118Y92606D02*
X366266Y91458D01*
X370859Y91458*
X372008Y92606*
X372008Y93754*
X370859Y94903*
X366266Y94903*
X365118Y96051*
X365118Y97199*
X366266Y98348*
X370859Y98348*
X372008Y97199*
X385787Y97199D02*
X384639Y98348D01*
X380046Y98348*
X378897Y97199*
X378897Y92606*
X380046Y91458*
X384639Y91458*
X385787Y92606*
X399566Y97199D02*
X398418Y98348D01*
X393825Y98348*
X392676Y97199*
X392676Y92606*
X393825Y91458*
X398418Y91458*
X399566Y92606*
X399566Y97199*
X406456Y98348D02*
X409901Y91458D01*
X413345Y98348*
X420235Y94903D02*
X427125Y94903D01*
X427125Y97199*
X425976Y98348*
X421383Y98348*
X420235Y97199*
X420235Y92606*
X421383Y91458*
X425976Y91458*
X427125Y92606*
X434014Y91458D02*
X434014Y98348D01*
X434014Y97199D02*
X435162Y98348D01*
X438607Y98348*
X439756Y97199*
X447793Y98348D02*
X451812Y91458D01*
X455831Y98348D02*
X450090Y88587D01*
M02*
