G70*
%FSLAX55Y55*%
%ADD11C,0.01000*%
%ADD12C,0.00800*%
%ADD13C,0.02000*%
%ADD14R,0.03394X0.04094*%
%ADD15R,0.07394X0.07394*%
%ADD16C,0.07394*%
%ADD17R,0.04094X0.03394*%
%ADD18R,0.08268X0.05512*%
%ADD19R,0.08898X0.06378*%
%ADD20R,0.02756X0.02165*%
%ADD21R,0.04724X0.05118*%
%ADD22R,0.01994X0.03394*%
%ADD23C,0.06594*%
%ADD24R,0.13780X0.05118*%
%ADD25C,0.05000*%
%ADD26R,0.06394X0.05394*%
%ADD27R,0.05906X0.09054*%
%ADD28O,0.04331X0.04331*%
%ADD29C,0.04528*%
%ADD30R,0.05118X0.04724*%
%ADD31R,0.07394X0.07394*%
%ADD32R,0.04331X0.01181*%
%ADD33R,0.01181X0.04331*%
%ADD34O,0.04134X0.01575*%
%ADD35O,0.01575X0.04134*%
%ADD36R,0.02394X0.09449*%
%ADD37R,0.08268X0.14173*%
%ADD38R,0.24803X0.05118*%
%ADD39C,0.04331*%
%ADD40R,0.01969X0.13780*%
%ADD41C,0.03937*%
%ADD42R,0.04724X0.06299*%
%ADD43C,0.00100*%
%ADD44C,0.01394*%
%ADD45C,0.02480*%
%ADD46C,0.01575*%
%ADD47C,0.01500*%
D11*
X285882Y415262D02*
X545725Y415262D01*
X545725Y884947*
X285882Y884947*
X285882Y415262*
D12*
G36*
X685804Y86797D02*
X708758Y86807D01*
X709804Y88897*
X700804Y97897*
X699604Y100597*
X699604Y103897*
X699904Y105097*
X701104Y107197*
X702304Y108397*
X703804Y109297*
X705604Y109897*
X707704Y110197*
X750304Y110197*
X747904Y103897*
X747604Y103597*
X737704Y103597*
X728104Y80797*
X721204Y80797*
X730504Y102697*
X730504Y103597*
X706804Y103597*
X706204Y103297*
X705904Y102697*
X705904Y101797*
X706204Y101497*
X714904Y93097*
X715804Y91597*
X716104Y90097*
X716404Y89797*
X716404Y87097*
G75*
G02X711604Y80797I-08949J01839*
G01X683404Y80797*
X683404Y81397*
X685504Y86497*
X685804Y86797*
G37*
X708758Y86807*
X709804Y88897*
X700804Y97897*
X699604Y100597*
X699604Y103897*
X699904Y105097*
X701104Y107197*
X702304Y108397*
X703804Y109297*
X705604Y109897*
X707704Y110197*
X750304Y110197*
X747904Y103897*
X747604Y103597*
X737704Y103597*
X728104Y80797*
X721204Y80797*
X730504Y102697*
X730504Y103597*
X706804Y103597*
X706204Y103297*
X705904Y102697*
X705904Y101797*
X706204Y101497*
X714904Y93097*
X715804Y91597*
X716104Y90097*
X716404Y89797*
X716404Y87097*
G75*
G02X711604Y80797I-08949J01839*
G01X683404Y80797*
X683404Y81397*
X685504Y86497*
X685804Y86797*
X202051Y49689D02*
X632051Y49689D01*
D13*
X197051Y129689D02*
X637051Y129689D01*
X67050Y29689D02*
X187051Y29689D01*
D12*
X202051Y84689D02*
X632051Y84689D01*
D13*
X197051Y119689D02*
X637051Y119689D01*
D12*
X684004Y80197D02*
X683404Y80797D01*
X683404Y81397*
X695404Y110497*
G75*
G02X702004Y115597I08543J-04235*
G01X751804Y115597*
X752104Y115297*
X752104Y114097*
X740104Y85297*
G75*
G02X733504Y80197I-08825J04600*
G01X684004Y80197*
D13*
X637051Y129689D02*
X637051Y169689D01*
X57051Y179689D02*
X807051Y179689D01*
X67050Y124689D02*
X187051Y124689D01*
X67050Y169689D02*
X187051Y169689D01*
X197051Y169689D02*
X637051Y169689D01*
X197051Y29689D02*
X197051Y119689D01*
X197051Y129689D02*
X197051Y169689D01*
X67050Y29689D02*
X67050Y169689D01*
X637051Y29689D02*
X637051Y119689D01*
X647051Y169689D02*
X797051Y169689D01*
X647051Y29689D02*
X797051Y29689D01*
X19649Y19689D02*
X19649Y1149611D01*
X19649Y19689D02*
X807051Y19689D01*
X57051Y19689D02*
X57051Y179689D01*
X187051Y29689D02*
X187051Y169689D01*
X647051Y29689D02*
X647051Y169689D01*
X797051Y29689D02*
X797051Y169689D01*
X67050Y79689D02*
X187051Y79689D01*
X807051Y19689D02*
X807051Y1149611D01*
X197051Y29689D02*
X637051Y29689D01*
X19649Y1149611D02*
X807051Y1149611D01*
D14*
X395134Y755222D03*
X395134Y750498D03*
D15*
X450804Y811797D03*
D16*
X450804Y801797D03*
X450804Y791797D03*
X450804Y781797D03*
D17*
X323441Y849297D03*
X328166Y849297D03*
D18*
X394603Y690970D03*
X394603Y712624D03*
X382004Y712624D03*
X382004Y690970D03*
D19*
X383717Y737939D03*
X383717Y755655D03*
X347890Y755655D03*
X347890Y737939D03*
D14*
X395804Y846659D03*
X395804Y841935D03*
D17*
X320941Y801797D03*
X325666Y801797D03*
X320941Y811797D03*
X325666Y811797D03*
D20*
X321304Y841797D03*
X330304Y841797D03*
D14*
X388304Y846659D03*
X388304Y841935D03*
D17*
X476916Y714297D03*
X472191Y714297D03*
D14*
X395134Y744396D03*
X395134Y739671D03*
X375804Y846659D03*
X375804Y841935D03*
D21*
X479150Y721797D03*
X472457Y721797D03*
D17*
X320941Y831797D03*
X325666Y831797D03*
D22*
X459544Y864612D03*
X455804Y864612D03*
X452064Y864612D03*
X452064Y853982D03*
X459544Y853982D03*
D19*
X447890Y755655D03*
X447890Y737939D03*
X483717Y737939D03*
X483717Y755655D03*
D23*
X433556Y696777D03*
X413556Y696777D03*
D15*
X310804Y841797D03*
D16*
X310804Y831797D03*
X310804Y821797D03*
X310804Y811797D03*
X310804Y801797D03*
X310804Y791797D03*
D14*
X375804Y814159D03*
X375804Y809435D03*
D24*
X486119Y804297D03*
X525489Y804297D03*
X486119Y814297D03*
X525489Y814297D03*
X486119Y824297D03*
X525489Y824297D03*
X486119Y834297D03*
X525489Y834297D03*
D25*
X505804Y809297D03*
X505804Y829297D03*
D26*
X463304Y718547D03*
X463304Y707547D03*
D27*
X432241Y423333D03*
X399367Y423333D03*
D28*
X424564Y421463D03*
X407044Y421463D03*
D29*
X424564Y435242D03*
X407044Y435242D03*
D21*
X459150Y846797D03*
X452457Y846797D03*
D30*
X443304Y862644D03*
X443304Y855951D03*
D14*
X405804Y846659D03*
X405804Y841935D03*
X388245Y784947D03*
X388245Y789671D03*
X380804Y846659D03*
X380804Y841935D03*
D20*
X426304Y844297D03*
X435304Y844297D03*
D15*
X310804Y766797D03*
D16*
X310804Y776797D03*
D14*
X411867Y784947D03*
X411867Y789671D03*
X420804Y846659D03*
X420804Y841935D03*
X401040Y750498D03*
X401040Y755222D03*
D31*
X360804Y781797D03*
D16*
X350804Y781797D03*
D32*
X384071Y827624D03*
X384071Y825655D03*
X384071Y823687D03*
X384071Y821718D03*
X384071Y819750D03*
X384071Y817781D03*
X384071Y815813D03*
X384071Y813844D03*
X384071Y811876D03*
X384071Y809907D03*
X384071Y807939D03*
X384071Y805970D03*
D33*
X389977Y800065D03*
X391945Y800065D03*
X393914Y800065D03*
X395882Y800065D03*
X397851Y800065D03*
X399819Y800065D03*
X401788Y800065D03*
X403756Y800065D03*
X405725Y800065D03*
X407693Y800065D03*
X409662Y800065D03*
X411630Y800065D03*
D32*
X417536Y805970D03*
X417536Y807939D03*
X417536Y809907D03*
X417536Y811876D03*
X417536Y813844D03*
X417536Y815813D03*
X417536Y817781D03*
X417536Y819750D03*
X417536Y821718D03*
X417536Y823687D03*
X417536Y825655D03*
X417536Y827624D03*
D33*
X411630Y833529D03*
X409662Y833529D03*
X407693Y833529D03*
X405725Y833529D03*
X403756Y833529D03*
X401788Y833529D03*
X399819Y833529D03*
X397851Y833529D03*
X395882Y833529D03*
X393914Y833529D03*
X391945Y833529D03*
X389977Y833529D03*
D15*
X520804Y871797D03*
D16*
X520804Y861797D03*
D14*
X424662Y805616D03*
X424662Y810340D03*
D30*
X348875Y716837D03*
X348875Y710144D03*
D34*
X481217Y698136D03*
X481217Y695577D03*
X481217Y693018D03*
X481217Y690459D03*
D35*
X484465Y687211D03*
X487024Y687211D03*
X489583Y687211D03*
X492142Y687211D03*
D34*
X495390Y690459D03*
X495390Y693018D03*
X495390Y695577D03*
X495390Y698136D03*
D35*
X492142Y701384D03*
X489583Y701384D03*
X487024Y701384D03*
X484465Y701384D03*
D14*
X373304Y871659D03*
X373304Y866935D03*
X432536Y755222D03*
X432536Y750498D03*
X455804Y841659D03*
X455804Y836935D03*
D36*
X422092Y858470D03*
X418942Y858470D03*
X415792Y858470D03*
X412642Y858470D03*
X409492Y858470D03*
D37*
X396699Y858274D03*
X396699Y877959D03*
X434888Y858274D03*
X434888Y877959D03*
D38*
X415804Y882486D03*
D39*
X424442Y869297D03*
X407142Y869297D03*
D15*
X310804Y871797D03*
D16*
X310804Y861797D03*
D14*
X406945Y750498D03*
X406945Y755222D03*
D17*
X338441Y841797D03*
X343166Y841797D03*
D14*
X415804Y846659D03*
X415804Y841935D03*
X383323Y789671D03*
X383323Y784947D03*
X355804Y864435D03*
X355804Y869159D03*
X372497Y794789D03*
X372497Y799514D03*
X425804Y824435D03*
X425804Y829159D03*
D30*
X336079Y729632D03*
X336079Y722939D03*
D40*
X480567Y605931D03*
X477812Y605931D03*
X475056Y605931D03*
X472300Y605931D03*
X469544Y605931D03*
X466788Y605931D03*
X464032Y605931D03*
X461276Y605931D03*
X458520Y605931D03*
X455764Y605931D03*
X453008Y605931D03*
X450252Y605931D03*
X447497Y605931D03*
X444741Y605931D03*
X441985Y605931D03*
X439229Y605931D03*
X436473Y605931D03*
X433717Y605931D03*
X430961Y605931D03*
X428205Y605931D03*
X425449Y605931D03*
X422693Y605931D03*
X419938Y605931D03*
X417182Y605931D03*
X414426Y605931D03*
X411670Y605931D03*
X408914Y605931D03*
X406158Y605931D03*
X403402Y605931D03*
X400646Y605931D03*
X397890Y605931D03*
X395134Y605931D03*
X392378Y605931D03*
X389623Y605931D03*
X386867Y605931D03*
X384111Y605931D03*
X381355Y605931D03*
X378599Y605931D03*
X375843Y605931D03*
X373087Y605931D03*
X370331Y605931D03*
X367575Y605931D03*
X364819Y605931D03*
X362064Y605931D03*
X359308Y605931D03*
X356552Y605931D03*
X353796Y605931D03*
X351040Y605931D03*
D39*
X496906Y442545D03*
X496906Y673648D03*
X334701Y442545D03*
D41*
X351630Y633963D03*
X479977Y633963D03*
D30*
X336079Y716837D03*
X336079Y710144D03*
D14*
X410804Y846659D03*
X410804Y841935D03*
X438441Y750498D03*
X438441Y755222D03*
D21*
X459150Y871797D03*
X452457Y871797D03*
D30*
X365804Y872644D03*
X365804Y865951D03*
D20*
X460304Y831797D03*
X451304Y831797D03*
D17*
X320941Y791797D03*
X325666Y791797D03*
D14*
X377418Y794789D03*
X377418Y799514D03*
X325804Y869435D03*
X325804Y874159D03*
X333304Y869435D03*
X333304Y874159D03*
D42*
X340351Y863392D03*
X340351Y875203D03*
X346256Y875203D03*
X346256Y863392D03*
D30*
X348875Y729632D03*
X348875Y722939D03*
D14*
X455804Y876935D03*
X455804Y881659D03*
D23*
X360823Y811761D03*
X360823Y831761D03*
D15*
X310804Y751797D03*
D16*
X320804Y751797D03*
X310804Y741797D03*
X320804Y741797D03*
X310804Y731797D03*
X320804Y731797D03*
X310804Y721797D03*
X320804Y721797D03*
X310804Y711797D03*
X320804Y711797D03*
X310804Y701797D03*
X320804Y701797D03*
X310804Y691797D03*
X320804Y691797D03*
X310804Y681797D03*
X320804Y681797D03*
X310804Y671797D03*
X320804Y671797D03*
X310804Y661797D03*
X320804Y661797D03*
X310804Y651797D03*
X320804Y651797D03*
X310804Y641797D03*
X320804Y641797D03*
X310804Y631797D03*
X320804Y631797D03*
X310804Y621797D03*
X320804Y621797D03*
X310804Y611797D03*
X320804Y611797D03*
X310804Y601797D03*
X320804Y601797D03*
X310804Y591797D03*
X320804Y591797D03*
X310804Y581797D03*
X320804Y581797D03*
X310804Y571797D03*
X320804Y571797D03*
X310804Y561797D03*
X320804Y561797D03*
X310804Y551797D03*
X320804Y551797D03*
X310804Y541797D03*
X320804Y541797D03*
X310804Y531797D03*
X320804Y531797D03*
X310804Y521797D03*
X320804Y521797D03*
X310804Y511797D03*
X320804Y511797D03*
X310804Y501797D03*
X320804Y501797D03*
X310804Y491797D03*
X320804Y491797D03*
X310804Y481797D03*
X320804Y481797D03*
X310804Y471797D03*
X320804Y471797D03*
X310804Y461797D03*
X320804Y461797D03*
X310804Y451797D03*
X320804Y451797D03*
X310804Y441797D03*
X320804Y441797D03*
D43*
G36*
X428599Y747939D02*
X428599Y757781D01*
X424662Y757781*
X424662Y747939*
X428599Y747939*
G37*
X428599Y757781*
X424662Y757781*
X424662Y747939*
X428599Y747939*
D44*
X426630Y750892D03*
X426630Y755222D03*
D15*
X510804Y751797D03*
D16*
X520804Y751797D03*
X510804Y741797D03*
X520804Y741797D03*
X510804Y731797D03*
X520804Y731797D03*
X510804Y721797D03*
X520804Y721797D03*
X510804Y711797D03*
X520804Y711797D03*
X510804Y701797D03*
X520804Y701797D03*
X510804Y691797D03*
X520804Y691797D03*
X510804Y681797D03*
X520804Y681797D03*
X510804Y671797D03*
X520804Y671797D03*
X510804Y661797D03*
X520804Y661797D03*
X510804Y651797D03*
X520804Y651797D03*
X510804Y641797D03*
X520804Y641797D03*
X510804Y631797D03*
X520804Y631797D03*
X510804Y621797D03*
X520804Y621797D03*
X510804Y611797D03*
X520804Y611797D03*
X510804Y601797D03*
X520804Y601797D03*
X510804Y591797D03*
X520804Y591797D03*
X510804Y581797D03*
X520804Y581797D03*
X510804Y571797D03*
X520804Y571797D03*
X510804Y561797D03*
X520804Y561797D03*
X510804Y551797D03*
X520804Y551797D03*
X510804Y541797D03*
X520804Y541797D03*
X510804Y531797D03*
X520804Y531797D03*
X510804Y521797D03*
X520804Y521797D03*
X510804Y511797D03*
X520804Y511797D03*
X510804Y501797D03*
X520804Y501797D03*
X510804Y491797D03*
X520804Y491797D03*
X510804Y481797D03*
X520804Y481797D03*
X510804Y471797D03*
X520804Y471797D03*
X510804Y461797D03*
X520804Y461797D03*
X510804Y451797D03*
X520804Y451797D03*
X510804Y441797D03*
X520804Y441797D03*
D43*
G36*
X408914Y737112D02*
X408914Y746955D01*
X404977Y746955*
X404977Y737112*
X408914Y737112*
G37*
X408914Y746955*
X404977Y746955*
X404977Y737112*
X408914Y737112*
D44*
X406945Y740065D03*
X406945Y744396D03*
D45*
X80804Y41797D02*
X80804Y48687*
X82182Y46718D01*
X89071Y46718*
X90449Y48687*
X90449Y54592*
X89071Y56561*
X82182Y56561*
X80804Y58529*
X80804Y63451*
X82182Y65419*
X89071Y65419*
X90449Y63451*
X99406Y46718D02*
X99062Y46718D01*
X99062Y47703*
X99406Y47703*
X99406Y46718*
X105607Y46718D02*
X105607Y65419D01*
X111808Y46718*
X118008Y65419*
X118008Y46718*
X124209Y46718D02*
X123865Y46718D01*
X123865Y47703*
X124209Y47703*
X124209Y46718*
X140056Y46718D02*
X130410Y46718D01*
X130410Y65419*
X140056Y65419*
X140056Y56561D02*
X130410Y56561D01*
X149012Y46718D02*
X148668Y46718D01*
X148668Y47703*
X149012Y47703*
X149012Y46718*
X164859Y46718D02*
X155213Y46718D01*
X155213Y65419*
X164859Y65419*
X164859Y56561D02*
X155213Y56561D01*
X173815Y46718D02*
X173471Y46718D01*
X173471Y47703*
X173815Y47703*
X173815Y46718*
D46*
X207142Y141640D02*
X207142Y145659*
X208291Y144510D01*
X214032Y144510*
X215180Y145659*
X215180Y149104*
X214032Y150252*
X208291Y150252*
X207142Y151400*
X207142Y154271*
X208291Y155419*
X214032Y155419*
X215180Y154271*
X230108Y146233D02*
X228385Y144510D01*
X222644Y144510*
X220921Y146233*
X220921Y153697*
X222644Y155419*
X228385Y155419*
X230108Y153697*
X230108Y146233*
X242739Y144510D02*
X234701Y144510D01*
X234701Y155419*
X248480Y155419D02*
X254221Y155419D01*
X256518Y154271*
X257666Y151974*
X257666Y147955*
X256518Y145659*
X254221Y144510*
X248480Y144510*
X250776Y144510D02*
X250776Y155419D01*
X270297Y144510D02*
X262259Y144510D01*
X262259Y155419*
X270297Y155419*
X270297Y150252D02*
X262259Y150252D01*
X276038Y144510D02*
X276038Y155419D01*
X284076Y155419*
X285225Y154271*
X285225Y151400*
X284076Y150252*
X276038Y150252*
X282928Y150252D02*
X284076Y150252D01*
X285225Y144510*
X299004Y141640D02*
X303597Y144510*
X303597Y155419D01*
X308764Y144510*
X313931Y155419*
X313931Y144510*
X317376Y144510D02*
X321969Y155419D01*
X326562Y144510*
X319098Y148529D02*
X324840Y148529D01*
X331155Y145659D02*
X332303Y144510D01*
X338045Y144510*
X339193Y145659*
X339193Y149104*
X338045Y150252*
X332303Y150252*
X331155Y151400*
X331155Y154271*
X332303Y155419*
X338045Y155419*
X339193Y154271*
X344934Y144510D02*
X344934Y155419D01*
X344934Y150252D02*
X345509Y150252D01*
X352972Y155419*
X345509Y150252D02*
X352972Y144510D01*
X367900Y141640D02*
X372493Y155419*
X381679Y155419D01*
X377086Y155419D02*
X377086Y144510D01*
X395458Y146233D02*
X393736Y144510D01*
X387994Y144510*
X386272Y146233*
X386272Y153697*
X387994Y155419*
X393736Y155419*
X395458Y153697*
X395458Y146233*
X400051Y144510D02*
X400051Y155419D01*
X408089Y155419*
X409238Y154271*
X409238Y151400*
X408089Y150252*
X400051Y150252*
X423017Y141640D02*
X435648Y144510*
X427610Y144510D01*
X427610Y155419*
X441389Y144510D02*
X445982Y155419D01*
X450575Y144510*
X443111Y148529D02*
X448853Y148529D01*
X455168Y155419D02*
X459761Y150252D01*
X464354Y155419*
X459761Y150252D02*
X459761Y144510D01*
X476985Y144510D02*
X468947Y144510D01*
X468947Y155419*
X476985Y155419*
X476985Y150252D02*
X468947Y150252D01*
X482726Y144510D02*
X482726Y155419D01*
X490765Y155419*
X491913Y154271*
X491913Y151400*
X490765Y150252*
X482726Y150252*
X489616Y150252D02*
X490765Y150252D01*
X491913Y144510*
D47*
X73284Y149514D02*
X73284Y159514*
X77451Y159514D01*
X79117Y158680*
X79951Y157014*
X79951Y154097*
X79117Y152430*
X77451Y151597*
X73284Y151597*
X74951Y151597D02*
X74951Y159514D01*
X83284Y151597D02*
X86617Y159514D01*
X89950Y151597*
X84534Y154514D02*
X88700Y154514D01*
X93283Y159514D02*
X99950Y159514D01*
X96617Y159514D02*
X96617Y151597D01*
X109116Y151597D02*
X103283Y151597D01*
X103283Y159514*
X109116Y159514*
X109116Y155764D02*
X103283Y155764D01*
X114533Y151597D02*
X114324Y151597D01*
X114324Y152014*
X114533Y152014*
X114533Y151597*
X114533Y155764D02*
X114324Y155764D01*
X114324Y156180*
X114533Y156180*
X114533Y155764*
X73284Y133766D02*
X73284Y142932*
X74117Y143766D01*
X78284Y143766*
X79117Y142932*
X79117Y140849*
X78284Y140016*
X75784Y140016*
X78284Y140016*
X79117Y139182*
X79117Y137099*
X78284Y135849*
X74117Y135849*
X73284Y136682*
X89117Y136682D02*
X88284Y135849D01*
X84117Y135849*
X83284Y136682*
X83284Y142932*
X84117Y143766*
X88284Y143766*
X89117Y142932*
X89117Y136682*
X83284Y136682D02*
X89117Y142932D01*
X93283Y135849D02*
X99950Y143766D01*
X109116Y136682D02*
X108283Y135849D01*
X104116Y135849*
X103283Y136682*
X103283Y142932*
X104116Y143766*
X108283Y143766*
X109116Y142932*
X109116Y136682*
X103283Y136682D02*
X109116Y142932D01*
X117449Y135849D02*
X117449Y143766D01*
X113283Y138766*
X119116Y138766*
X123282Y135849D02*
X129949Y143766D01*
X133282Y142932D02*
X134115Y143766D01*
X138282Y143766*
X139115Y142932*
X139115Y141266*
X138282Y140432*
X133282Y135849*
X139115Y135849*
X149115Y136682D02*
X148282Y135849D01*
X144115Y135849*
X143282Y136682*
X143282Y142932*
X144115Y143766*
X148282Y143766*
X149115Y142932*
X149115Y136682*
X143282Y136682D02*
X149115Y142932D01*
X154740Y135849D02*
X154740Y143766D01*
X153906Y142099*
X158281Y142932D02*
X159115Y143766D01*
X163281Y143766*
X164115Y142932*
X164115Y140849*
X163281Y140016*
X160781Y140016*
X163281Y140016*
X164115Y139182*
X164115Y137099*
X163281Y135849*
X159115Y135849*
X158281Y136682*
D46*
X206657Y53154D02*
X206657Y56025*
X206657Y66934D01*
X211824Y56025*
X216992Y66934*
X216992Y56025*
X220436Y56025D02*
X220436Y66934D01*
X228474Y66934*
X229623Y65785*
X229623Y62914*
X228474Y61766*
X220436Y61766D02*
X228474Y61766D01*
X229623Y60618*
X229623Y57173*
X228474Y56025*
X220436Y56025*
X236225Y56025D02*
X236225Y66934D01*
X235077Y64637*
X249143Y57173D02*
X247995Y56025D01*
X242253Y56025*
X241105Y57173*
X241105Y65785*
X242253Y66934*
X247995Y66934*
X249143Y65785*
X249143Y57173*
X241105Y57173D02*
X249143Y65785D01*
X254884Y66934D02*
X262922Y66934D01*
X256033Y56025*
X268664Y57173D02*
X269812Y56025D01*
X275553Y56025*
X276702Y57173*
X276702Y61192*
X275553Y62340*
X269812Y62340*
X268664Y61192*
X268664Y66934*
X276702Y66934*
X282443Y56025D02*
X282443Y66934D01*
X290481Y66934*
X291629Y65785*
X291629Y62914*
X290481Y61766*
X282443Y61766D02*
X290481Y61766D01*
X291629Y60618*
X291629Y57173*
X290481Y56025*
X282443Y56025*
X206657Y88587D02*
X206657Y92606*
X207805Y91458D01*
X213547Y91458*
X214695Y92606*
X214695Y96051*
X213547Y97199*
X207805Y97199*
X206657Y98348*
X206657Y101218*
X207805Y102367*
X213547Y102367*
X214695Y101218*
X220436Y102367D02*
X229623Y102367D01*
X225029Y102367D02*
X225029Y91458D01*
X234216Y91458D02*
X234216Y102367D01*
X239383Y91458*
X244550Y102367*
X244550Y91458*
X247995Y101218D02*
X249143Y102367D01*
X254884Y102367*
X256033Y101218*
X256033Y98348*
X254884Y97199*
X251440Y97199*
X254884Y97199*
X256033Y96051*
X256033Y93180*
X254884Y91458*
X249143Y91458*
X247995Y92606*
X261774Y101218D02*
X262922Y102367D01*
X268664Y102367*
X269812Y101218*
X269812Y98922*
X268664Y97773*
X261774Y91458*
X269812Y91458*
X275553Y91458D02*
X275553Y102367D01*
X283591Y102367*
X283591Y97199D02*
X275553Y97199D01*
X295074Y91458D02*
X295074Y102367D01*
X289332Y95477*
X297370Y95477*
X303112Y101218D02*
X304260Y102367D01*
X310001Y102367*
X311150Y101218*
X311150Y98922*
X310001Y97773*
X303112Y91458*
X311150Y91458*
X324929Y97773D02*
X323781Y96625D01*
X317465Y96625*
X316891Y97773*
X316891Y101218*
X318039Y102367*
X323781Y102367*
X324929Y101218*
X324929Y92606*
X323781Y91458*
X318039Y91458*
X316891Y92606*
X331818Y97199D02*
X338708Y97199D01*
X351339Y97199D02*
X350191Y98348D01*
X345597Y98348*
X344449Y97199*
X344449Y92606*
X345597Y91458*
X350191Y91458*
X351339Y92606*
X351339Y91458D02*
X351339Y102367D01*
X360525Y91458D02*
X360525Y97773D01*
X360525Y101792D02*
X360525Y102367D01*
X359951Y91458D02*
X361099Y91458D01*
X365118Y92606D02*
X366266Y91458D01*
X370859Y91458*
X372008Y92606*
X372008Y93754*
X370859Y94903*
X366266Y94903*
X365118Y96051*
X365118Y97199*
X366266Y98348*
X370859Y98348*
X372008Y97199*
X385787Y97199D02*
X384639Y98348D01*
X380046Y98348*
X378897Y97199*
X378897Y92606*
X380046Y91458*
X384639Y91458*
X385787Y92606*
X399566Y97199D02*
X398418Y98348D01*
X393825Y98348*
X392676Y97199*
X392676Y92606*
X393825Y91458*
X398418Y91458*
X399566Y92606*
X399566Y97199*
X406456Y98348D02*
X409901Y91458D01*
X413345Y98348*
X420235Y94903D02*
X427125Y94903D01*
X427125Y97199*
X425976Y98348*
X421383Y98348*
X420235Y97199*
X420235Y92606*
X421383Y91458*
X425976Y91458*
X427125Y92606*
X434014Y91458D02*
X434014Y98348D01*
X434014Y97199D02*
X435162Y98348D01*
X438607Y98348*
X439756Y97199*
X447793Y98348D02*
X451812Y91458D01*
X455831Y98348D02*
X450090Y88587D01*
M02*
